<?xml version="1.0" encoding="UTF-8" standalone="no"?>
<svg
   xmlns:dc="http://purl.org/dc/elements/1.1/"
   xmlns:cc="http://creativecommons.org/ns#"
   xmlns:rdf="http://www.w3.org/1999/02/22-rdf-syntax-ns#"
   xmlns:svg="http://www.w3.org/2000/svg"
   xmlns="http://www.w3.org/2000/svg"
   xmlns:sodipodi="http://sodipodi.sourceforge.net/DTD/sodipodi-0.dtd"
   xmlns:inkscape="http://www.inkscape.org/namespaces/inkscape"
   version="1.1"
   x="0px"
   y="0px"
   viewBox="0 0 98 98"
   enable-background="new 0 0 100 100"
   xml:space="preserve"
   id="svg34"
   sodipodi:docname="brick.svg"
   inkscape:version="1.0.2 (e86c870879, 2021-01-15, custom)"
   width="98"
   height="98"><metadata
     id="metadata40"><rdf:RDF><cc:Work
         rdf:about=""><dc:format>image/svg+xml</dc:format><dc:type
           rdf:resource="http://purl.org/dc/dcmitype/StillImage" /><dc:title></dc:title></cc:Work></rdf:RDF></metadata><defs
     id="defs38" /><sodipodi:namedview
     pagecolor="#ffffff"
     bordercolor="#666666"
     borderopacity="1"
     objecttolerance="10"
     gridtolerance="10"
     guidetolerance="10"
     inkscape:pageopacity="0"
     inkscape:pageshadow="2"
     inkscape:window-width="2560"
     inkscape:window-height="1377"
     id="namedview36"
     showgrid="false"
     inkscape:zoom="8.064"
     inkscape:cx="50"
     inkscape:cy="67.571641"
     inkscape:window-x="-8"
     inkscape:window-y="-8"
     inkscape:window-maximized="1"
     inkscape:current-layer="svg34"
     inkscape:document-rotation="0" /><path
     fill="#000000"
     d="m 40.34896,41.175175 c 0,10e-4 0,0.002 0,0.003 v 1.684 0.015 0 3.224 1.641 c 0,0.002 0.001,0.004 0.001,0.006 0,0.032 0.013,0.063 0.02,0.095 0.007,0.034 0.009,0.069 0.022,0.1 0.001,0.002 0.001,0.004 0.001,0.006 l 0.722,1.597 c 0.005,0.011 0.017,0.016 0.022,0.025 0.02,0.038 0.038,0.078 0.069,0.111 l 1.356,1.443 c 0.016,0.017 0.036,0.023 0.054,0.037 0.018,0.015 0.03,0.034 0.05,0.047 l 1.903,1.159 c 0.012,0.007 0.025,0.004 0.038,0.011 0.021,0.011 0.038,0.027 0.061,0.035 l 2.362,0.81 c 0.015,0.005 0.03,0.004 0.044,0.008 0.011,0.002 0.02,0.01 0.031,0.012 l 2.604,0.46 c 0.029,0.006 0.058,0.008 0.086,0.008 0,0 0,0 0,0 h 2.69 c 0,0 0,0 10e-4,0 0.027,0 0.057,-0.002 0.086,-0.008 l 2.603,-0.46 c 0.011,-0.002 0.019,-0.009 0.03,-0.012 0.016,-0.004 0.031,-0.002 0.047,-0.008 l 2.34,-0.81 c 0.025,-0.009 0.043,-0.026 0.066,-0.039 0.012,-0.006 0.025,-0.003 0.037,-0.011 l 1.904,-1.203 c 0.019,-0.012 0.03,-0.031 0.047,-0.045 0.016,-0.013 0.033,-0.019 0.047,-0.033 l 1.357,-1.422 c 0.036,-0.038 0.059,-0.084 0.081,-0.129 0.004,-0.008 0.014,-0.012 0.017,-0.021 l 0.678,-1.597 v 0 c 0.008,-0.017 0.006,-0.035 0.012,-0.053 0.014,-0.048 0.028,-0.096 0.028,-0.144 v -4.898 0 c 0,-0.001 0,-0.002 0,-0.003 v -1.66 c 0,-0.002 -10e-4,-0.004 -10e-4,-0.007 -0.001,-0.032 -0.013,-0.065 -0.02,-0.098 -0.008,-0.033 -0.01,-0.067 -0.023,-0.097 -10e-4,-0.002 0,-0.005 -0.002,-0.007 l -0.721,-1.575 c -0.014,-0.027 -0.035,-0.047 -0.052,-0.07 -0.015,-0.021 -0.022,-0.047 -0.042,-0.066 l -1.355,-1.422 c -0.015,-0.016 -0.034,-0.021 -0.05,-0.034 -0.017,-0.014 -0.026,-0.032 -0.046,-0.044 l -1.902,-1.203 c -0.018,-0.011 -0.037,-0.012 -0.055,-0.021 -0.018,-0.009 -0.03,-0.022 -0.05,-0.029 l -2.34,-0.809 c -0.015,-0.005 -0.028,-0.002 -0.042,-0.006 -0.016,-0.004 -0.027,-0.013 -0.043,-0.016 l -2.625,-0.416 c -0.013,-0.002 -0.025,0.003 -0.038,0.002 -0.014,-10e-4 -0.026,-0.008 -0.04,-0.008 h -2.689 c -0.014,0 -0.025,0.007 -0.039,0.008 -0.016,0.002 -0.031,-0.004 -0.048,0 l -2.603,0.46 c -0.013,0.002 -0.023,0.011 -0.036,0.015 -0.014,0.003 -0.027,0 -0.041,0.005 l -2.341,0.81 c -0.018,0.006 -0.031,0.02 -0.047,0.028 -0.017,0.007 -0.034,0.008 -0.049,0.018 l -1.903,1.159 c -0.02,0.012 -0.031,0.031 -0.048,0.045 -0.018,0.015 -0.04,0.022 -0.056,0.04 l -1.334,1.422 c -0.018,0.02 -0.026,0.044 -0.041,0.065 -0.017,0.025 -0.04,0.046 -0.053,0.075 l -0.7,1.598 c 0,10e-4 0,0.003 -10e-4,0.004 -0.012,0.027 -0.013,0.06 -0.02,0.089 -0.008,0.034 -0.02,0.069 -0.021,0.104 z m 2.852,-2.625 1.798,-1.096 2.256,-0.779 2.517,-0.444 h 2.608 l 2.546,0.403 2.241,0.774 1.805,1.141 1.254,1.315 0.642,1.4 v 1.452 l -0.604,1.442 -1.246,1.307 -1.8,1.096 -2.256,0.781 -2.518,0.444 h -2.605 l -2.529,-0.404 -2.26,-0.774 -1.805,-1.141 -1.254,-1.315 -0.642,-1.399 v -1.47 l 0.624,-1.425 z m 15.814,11.796 -1.803,1.14 -2.251,0.779 -2.518,0.444 h -2.604 l -2.522,-0.445 -2.272,-0.779 -1.799,-1.095 -1.254,-1.335 -0.643,-1.422 v -1.533 -1.171 l 1.216,1.274 c 0.014,0.015 0.032,0.021 0.047,0.032 0.017,0.015 0.028,0.033 0.047,0.046 l 1.903,1.203 c 0.012,0.008 0.026,0.005 0.039,0.011 0.023,0.013 0.041,0.03 0.066,0.039 l 2.362,0.81 c 0.016,0.005 0.031,0.004 0.047,0.008 0.013,0.003 0.023,0.012 0.036,0.014 l 2.604,0.416 c 0.026,0.004 0.053,0.006 0.079,0.006 v 0 h 2.69 c 0,0 0,0 10e-4,0 0.027,0 0.057,-0.002 0.086,-0.008 l 2.603,-0.46 c 0.011,-0.002 0.019,-0.009 0.03,-0.012 0.016,-0.004 0.031,-0.002 0.047,-0.008 l 2.34,-0.81 c 0.023,-0.008 0.04,-0.024 0.061,-0.036 0.012,-0.006 0.025,-0.003 0.037,-0.01 l 1.902,-1.159 c 0.021,-0.013 0.033,-0.032 0.051,-0.047 0.017,-0.013 0.036,-0.02 0.051,-0.035 l 1.173,-1.229 v 2.643 l -0.603,1.42 z"
     id="path26" /><path
     fill="#000000"
     d="m 97.03896,59.924175 v -29.399 c 0,-0.371 -0.205,-0.711 -0.533,-0.884 L 46.39096,3.1721746 c -0.333,-0.177 -0.738,-0.149 -1.046,0.068 L 2.1419603,33.931175 c -0.264,0.188 -0.421,0.491 -0.421,0.815 v 29.443 c 0,0.371 0.205,0.711 0.533,0.885 l 50.1379997,26.469 c 0.146,0.077 0.307,0.115 0.467,0.115 0.204,0 0.407,-0.062 0.58,-0.186 l 43.181,-30.734 c 0.262,-0.187 0.419,-0.49 0.419,-0.814 z m -93.3179997,-24.085 48.6379997,25.656 v 27.769 l -48.6379997,-25.677 z m 18.4799997,-12.418 2.528,-0.404 2.584,-0.041 2.517,0.443 2.272,0.779 1.82,1.096 1.232,1.332 0.644,1.425 v 1.428 l -0.625,1.424 -1.232,1.333 -1.797,1.115 -2.253,0.779 -2.518,0.444 h -2.607 l -2.539,-0.444 -2.229,-0.778 -1.824,-1.099 -1.229,-1.31 -0.644,-1.424 v -1.431 l 0.604,-1.442 1.248,-1.309 1.804,-1.14 z m 11.745,13.712 -1.802,1.098 -2.249,0.819 -2.521,0.402 h -2.607 l -2.547,-0.402 -2.219,-0.775 -1.828,-1.143 -1.23,-1.27 -0.642,-1.421 v -1.576 -1.146 l 1.192,1.27 c 0.015,0.016 0.035,0.022 0.051,0.036 0.02,0.016 0.033,0.037 0.056,0.051 l 1.925,1.159 c 0.012,0.007 0.026,0.005 0.038,0.011 0.019,0.01 0.034,0.025 0.055,0.032 l 2.318,0.81 c 0.016,0.006 0.031,0.004 0.047,0.008 0.011,0.003 0.02,0.011 0.032,0.013 l 2.625,0.459 c 0.028,0.006 0.058,0.008 0.085,0.008 0,0 0,0 0,0 h 2.69 c 0,0 0,0 0,0 0.028,0 0.057,-0.002 0.086,-0.008 l 2.604,-0.459 c 0.011,-0.002 0.02,-0.009 0.03,-0.012 0.016,-0.004 0.031,-0.003 0.047,-0.008 l 2.341,-0.81 c 0.024,-0.008 0.042,-0.025 0.063,-0.037 0.012,-0.006 0.025,-0.004 0.037,-0.011 l 1.903,-1.182 c 0.021,-0.013 0.033,-0.032 0.051,-0.048 0.017,-0.014 0.038,-0.021 0.053,-0.037 l 1.167,-1.263 v 2.699 l -0.624,1.424 z m -18.606,-9.34 c -0.024,0.058 -0.034,0.118 -0.036,0.178 0,0.005 -0.003,0.01 -0.003,0.016 v 0 c 0,10e-4 0,0.002 0,0.003 v 1.638 3.238 1.684 c 0,0.002 10e-4,0.004 10e-4,0.006 0,0.032 0.013,0.063 0.02,0.095 0.007,0.034 0.009,0.069 0.022,0.1 0.001,0.002 0.001,0.004 0.001,0.006 l 0.722,1.598 c 0.005,0.011 0.016,0.015 0.022,0.025 0.021,0.04 0.041,0.082 0.075,0.116 l 1.335,1.378 c 0.014,0.015 0.033,0.021 0.048,0.033 0.017,0.014 0.027,0.031 0.046,0.043 l 1.925,1.203 c 0.012,0.008 0.025,0.005 0.038,0.011 0.021,0.012 0.039,0.028 0.062,0.037 l 2.318,0.81 c 0.017,0.006 0.033,0.004 0.049,0.009 0.013,0.003 0.024,0.012 0.038,0.014 l 2.625,0.415 c 0.026,0.004 0.052,0.006 0.078,0.006 v 0 h 2.69 v 0 c 0.026,0 0.053,-0.002 0.079,-0.006 l 2.604,-0.415 c 0.015,-0.003 0.026,-0.012 0.041,-0.015 0.018,-0.005 0.035,-0.004 0.052,-0.01 l 2.341,-0.854 c 0.021,-0.008 0.035,-0.023 0.054,-0.033 0.011,-0.006 0.024,-0.003 0.035,-0.01 l 1.903,-1.159 c 0.021,-0.013 0.034,-0.033 0.052,-0.049 0.017,-0.014 0.037,-0.021 0.052,-0.036 l 1.334,-1.422 c 0.032,-0.034 0.05,-0.075 0.071,-0.114 0.006,-0.011 0.018,-0.015 0.022,-0.026 l 0.7,-1.597 c 0,-0.001 0,-0.003 10e-4,-0.004 0.012,-0.027 0.013,-0.06 0.02,-0.089 0.008,-0.035 0.021,-0.07 0.021,-0.105 0,-0.001 0,-0.002 0,-0.003 v -4.914 c 0,-0.001 0,-0.001 0,-0.001 v -0.007 -1.641 c 0,-0.002 -0.001,-0.004 -0.001,-0.006 0,-0.032 -0.013,-0.063 -0.02,-0.095 -0.007,-0.034 -0.009,-0.069 -0.022,-0.1 -10e-4,-0.002 -10e-4,-0.004 -10e-4,-0.006 l -0.722,-1.598 c -0.011,-0.023 -0.03,-0.04 -0.044,-0.061 -0.015,-0.024 -0.024,-0.052 -0.044,-0.073 l -1.335,-1.443 c -0.017,-0.019 -0.039,-0.026 -0.058,-0.042 -0.019,-0.015 -0.031,-0.034 -0.052,-0.047 l -1.925,-1.159 c -0.017,-0.01 -0.035,-0.011 -0.052,-0.019 -0.016,-0.007 -0.027,-0.02 -0.044,-0.025 l -2.362,-0.81 c -0.013,-0.005 -0.026,-0.002 -0.039,-0.005 -0.013,-0.004 -0.022,-0.012 -0.036,-0.015 l -2.604,-0.459 c -0.014,-0.003 -0.027,0.002 -0.041,0 -0.018,-0.001 -0.036,-0.01 -0.054,-0.008 l -2.669,0.043 c -0.012,0 -0.022,0.007 -0.034,0.008 -0.013,10e-4 -0.024,-0.004 -0.037,-0.002 l -2.603,0.416 c -0.016,0.003 -0.027,0.012 -0.042,0.016 -0.014,0.004 -0.028,0.001 -0.042,0.006 l -0.341,0.118 15.843,-11.255 -0.484,1.105 c -0.001,0.003 0,0.005 -0.001,0.007 -0.012,0.028 -0.013,0.061 -0.02,0.091 -0.007,0.034 -0.02,0.069 -0.02,0.104 0,0.003 -10e-4,0.005 -10e-4,0.007 l 0.021,1.638 v 0.003 0 l -0.019,3.249 c 0,0.002 10e-4,0.003 10e-4,0.005 0,0.002 -10e-4,0.003 -10e-4,0.005 l 0.021,1.66 v 0.001 0.002 c 10e-4,0.068 0.016,0.134 0.042,0.193 l 0.699,1.616 c 0.003,0.007 0.01,0.009 0.014,0.016 0.023,0.049 0.049,0.097 0.089,0.137 l 1.356,1.378 c 0.014,0.014 0.032,0.02 0.046,0.031 0.016,0.013 0.026,0.03 0.043,0.041 l 1.903,1.203 c 0.012,0.008 0.026,0.005 0.039,0.012 0.023,0.012 0.041,0.029 0.066,0.038 l 2.362,0.81 c 0.016,0.006 0.031,0.004 0.047,0.008 0.013,0.003 0.023,0.012 0.036,0.014 l 2.603,0.416 c 0.026,0.004 0.053,0.006 0.079,0.006 v 0 h 2.691 c 0,0 0,0 0,0 0.028,0 0.057,-0.002 0.086,-0.008 l 2.603,-0.46 c 0.012,-0.002 0.021,-0.01 0.032,-0.013 0.016,-0.004 0.03,-0.002 0.046,-0.008 l 2.318,-0.809 c 0.021,-0.007 0.035,-0.022 0.055,-0.032 0.013,-0.006 0.027,-0.003 0.039,-0.011 l 1.926,-1.16 c 0.022,-0.014 0.037,-0.035 0.057,-0.053 0.016,-0.013 0.035,-0.019 0.049,-0.034 l 1.334,-1.422 c 0.036,-0.038 0.059,-0.083 0.08,-0.128 0.004,-0.009 0.014,-0.012 0.017,-0.021 l 0.678,-1.615 c 0.025,-0.061 0.04,-0.126 0.04,-0.196 v -0.001 -0.001 -4.896 c 0,-10e-4 0,-10e-4 0,-0.002 v 0 -1.662 c 0,-10e-4 0,-0.002 0,-0.003 -10e-4,-0.035 -0.014,-0.069 -0.021,-0.104 -0.007,-0.03 -0.008,-0.062 -0.02,-0.09 -10e-4,-0.002 0,-0.003 -10e-4,-0.004 l -0.364,-0.829 15.792,8.34 h -2.455 c -0.014,0 -0.024,0.007 -0.038,0.008 -0.014,10e-4 -0.027,-0.004 -0.041,-0.002 l -2.601,0.414 c -0.018,0.003 -0.031,0.014 -0.049,0.018 -0.016,0.005 -0.031,0.002 -0.046,0.008 l -2.319,0.854 c -0.016,0.006 -0.025,0.018 -0.039,0.024 -0.015,0.007 -0.03,0.007 -0.045,0.016 l -1.902,1.138 c -0.021,0.012 -0.033,0.031 -0.051,0.046 -0.019,0.015 -0.041,0.022 -0.058,0.041 l -1.339,1.425 c 0,0.001 0,0.002 -0.001,0.002 l -0.016,0.017 c -0.02,0.021 -0.028,0.047 -0.044,0.069 -0.017,0.026 -0.039,0.047 -0.052,0.077 l -0.678,1.595 c -0.019,0.042 -0.022,0.089 -0.028,0.135 -0.003,0.021 -0.013,0.042 -0.013,0.062 v 0 1.641 0.007 10e-4 3.273 1.641 c 0,10e-4 10e-4,0.002 10e-4,0.003 0,0.035 0.013,0.069 0.021,0.104 0.007,0.03 0.008,0.062 0.02,0.09 0.001,0.002 0.001,0.003 0.001,0.004 l 0.7,1.597 c 0.005,0.011 0.017,0.016 0.022,0.025 0.021,0.04 0.039,0.081 0.071,0.116 l 1.356,1.444 c 0.016,0.017 0.037,0.023 0.055,0.038 0.02,0.016 0.033,0.037 0.055,0.05 l 1.926,1.138 c 0.011,0.007 0.024,0.004 0.036,0.01 0.019,0.009 0.031,0.023 0.05,0.03 l 2.342,0.831 c 0.015,0.006 0.03,0.004 0.046,0.008 0.013,0.004 0.021,0.012 0.034,0.014 l 2.603,0.459 c 0.029,0.006 0.058,0.008 0.087,0.008 v 0 c 0.002,0 0.006,0 0.008,0 l 2.713,-0.044 c 0.002,0 0.004,-10e-4 0.005,-10e-4 0.021,0 0.044,-0.002 0.065,-0.005 l 2.604,-0.415 c 0.016,-0.002 0.026,-0.012 0.04,-0.015 0.017,-0.004 0.033,-0.003 0.05,-0.009 l 2.34,-0.831 c 0.022,-0.008 0.038,-0.024 0.059,-0.036 0.014,-0.006 0.027,-0.003 0.039,-0.011 l 1.883,-1.182 c 0.02,-0.013 0.031,-0.032 0.049,-0.047 0.016,-0.013 0.035,-0.019 0.049,-0.034 l 1.356,-1.443 c 0.034,-0.036 0.054,-0.078 0.075,-0.12 0.004,-0.009 0.015,-0.013 0.019,-0.022 l 0.699,-1.598 c 0,-10e-4 0,-0.002 0.001,-0.002 0.014,-0.032 0.016,-0.068 0.021,-0.104 0.007,-0.031 0.019,-0.062 0.02,-0.092 0,-10e-4 0,-0.002 0,-0.003 v -4.871 c 0,-0.001 0,-0.001 0,-0.001 v -0.006 c 0,-0.001 -10e-4,-0.002 -10e-4,-0.003 0,-0.002 10e-4,-0.003 10e-4,-0.004 l -0.021,-1.685 c -10e-4,-0.064 -0.014,-0.131 -0.042,-0.194 l -0.348,-0.793 11.562,6.106 -41.72,29.63 c -0.007,-0.082 -0.025,-0.165 -0.075,-0.239 -0.153,-0.23 -0.463,-0.292 -0.693,-0.139 l -0.072,0.048 -47.9029997,-25.267 11.6389997,-8.269 z m 40.222,-5.998 -1.827,1.102 -2.227,0.776 -2.521,0.445 h -2.606 l -2.528,-0.404 -2.26,-0.774 -1.807,-1.143 -1.25,-1.27 -0.623,-1.44 -0.021,-1.561 0.008,-1.155 1.206,1.283 c 0.016,0.017 0.036,0.023 0.054,0.037 0.018,0.015 0.03,0.034 0.05,0.047 l 1.903,1.159 c 0.012,0.007 0.025,0.004 0.038,0.011 0.021,0.011 0.038,0.027 0.061,0.035 l 2.362,0.81 c 0.015,0.005 0.03,0.004 0.044,0.008 0.011,0.002 0.02,0.01 0.031,0.012 l 2.603,0.46 c 0.029,0.006 0.058,0.008 0.086,0.008 0,0 0,0 0,0 0.002,0 0.005,0 0.008,0 l 2.691,-0.044 c 10e-4,0 0.003,-0.001 0.004,-0.001 0.022,-0.001 0.044,-0.002 0.066,-0.005 l 2.603,-0.416 c 0.014,-0.002 0.024,-0.011 0.038,-0.015 0.016,-0.004 0.032,-0.002 0.048,-0.008 l 2.318,-0.81 c 0.024,-0.008 0.041,-0.025 0.062,-0.037 0.013,-0.006 0.026,-0.003 0.039,-0.011 l 1.924,-1.203 c 0.021,-0.013 0.032,-0.032 0.05,-0.047 0.017,-0.014 0.036,-0.02 0.05,-0.035 l 1.148,-1.224 v 2.663 l -0.604,1.442 z m 0.517,-11.245 0.688,0.721 0.623,1.422 v 1.455 l -0.604,1.421 -1.229,1.31 -1.824,1.141 -2.219,0.773 -2.531,0.405 -2.607,0.042 -2.516,-0.444 -2.272,-0.779 -1.799,-1.095 -1.251,-1.332 -0.625,-1.426 -0.019,-1.43 0.623,-1.422 1.23,-1.311 1.802,-1.1400004 2.249,-0.776 2.519,-0.445 h 2.627 l 2.441,0.432 z m -9.805,-3.9100004 c -0.015,0 -0.027,0.007 -0.042,0.009 -0.015,10e-4 -0.029,-0.004 -0.045,-0.001 l -2.603,0.46 c -0.014,0.003 -0.023,0.011 -0.036,0.015 -0.014,0.003 -0.027,0 -0.04,0.005 l -0.352,0.121 2.845,-2.021 2.674,1.412 z m 34.331,28.3730004 -1.785,1.12 -2.238,0.795 -2.529,0.403 -2.629,0.042 -2.514,-0.443 -2.252,-0.8 -1.825,-1.078 -1.248,-1.329 -0.624,-1.423 v -1.535 -1.167 l 1.192,1.27 c 0.016,0.017 0.037,0.024 0.055,0.038 0.018,0.014 0.029,0.033 0.049,0.045 l 1.924,1.181 c 0.012,0.007 0.024,0.004 0.036,0.01 0.021,0.011 0.036,0.027 0.058,0.035 l 2.342,0.832 c 0.018,0.007 0.036,0.005 0.055,0.01 0.013,0.003 0.023,0.012 0.037,0.014 l 2.604,0.394 c 0.024,0.004 0.049,0.006 0.074,0.006 v 0 h 2.713 v 0 c 0.027,0 0.055,-0.002 0.083,-0.007 l 2.604,-0.438 c 0.014,-0.002 0.023,-0.011 0.037,-0.015 0.016,-0.004 0.031,-0.002 0.048,-0.008 l 2.34,-0.831 c 0.022,-0.008 0.038,-0.024 0.059,-0.036 0.014,-0.006 0.027,-0.003 0.039,-0.011 l 1.883,-1.182 c 0.019,-0.012 0.029,-0.03 0.046,-0.044 0.015,-0.013 0.033,-0.018 0.047,-0.032 l 1.196,-1.235 v 2.664 l -0.622,1.422 z m 0.574,-11.206 0.656,0.678 0.624,1.423 0.019,1.475 -0.619,1.415 -1.25,1.291 -1.789,1.123 -2.24,0.796 -2.522,0.424 h -2.635 l -2.518,-0.381 -2.245,-0.798 -1.821,-1.117 -1.253,-1.334 -0.624,-1.423 v -1.434 l 0.604,-1.422 1.246,-1.327 1.803,-1.077 2.227,-0.819 2.521,-0.402 h 2.629 l 2.402,0.383 z m -27.82,37.645 41.68,-29.604 v 27.561 l -41.68,29.667 z"
     id="path28" /></svg>
