<?xml version="1.0" encoding="UTF-8" standalone="no"?>
<svg
   xmlns:dc="http://purl.org/dc/elements/1.1/"
   xmlns:cc="http://creativecommons.org/ns#"
   xmlns:rdf="http://www.w3.org/1999/02/22-rdf-syntax-ns#"
   xmlns:svg="http://www.w3.org/2000/svg"
   xmlns="http://www.w3.org/2000/svg"
   xmlns:sodipodi="http://sodipodi.sourceforge.net/DTD/sodipodi-0.dtd"
   xmlns:inkscape="http://www.inkscape.org/namespaces/inkscape"
   version="1.1"
   x="0px"
   y="0px"
   viewBox="0 0 98 98"
   enable-background="new 0 0 100 100"
   xml:space="preserve"
   id="svg34"
   sodipodi:docname="brick_blue.svg"
   inkscape:version="1.0.2 (e86c870879, 2021-01-15, custom)"
   width="98"
   height="98"><metadata
     id="metadata40"><rdf:RDF><cc:Work
         rdf:about=""><dc:format>image/svg+xml</dc:format><dc:type
           rdf:resource="http://purl.org/dc/dcmitype/StillImage" /><dc:title></dc:title></cc:Work></rdf:RDF></metadata><defs
     id="defs38" /><sodipodi:namedview
     pagecolor="#ffffff"
     bordercolor="#666666"
     borderopacity="1"
     objecttolerance="10"
     gridtolerance="10"
     guidetolerance="10"
     inkscape:pageopacity="0"
     inkscape:pageshadow="2"
     inkscape:window-width="1920"
     inkscape:window-height="1017"
     id="namedview36"
     showgrid="false"
     inkscape:zoom="8.064"
     inkscape:cx="50"
     inkscape:cy="42.770054"
     inkscape:window-x="3832"
     inkscape:window-y="-8"
     inkscape:window-maximized="1"
     inkscape:current-layer="svg34"
     inkscape:document-rotation="0" /><path
     fill="#000000"
     d="m 40.34896,41.175175 c 0,10e-4 0,0.002 0,0.003 v 1.684 0.015 0 3.224 1.641 c 0,0.002 0.001,0.004 0.001,0.006 0,0.032 0.013,0.063 0.02,0.095 0.007,0.034 0.009,0.069 0.022,0.1 0.001,0.002 0.001,0.004 0.001,0.006 l 0.722,1.597 c 0.005,0.011 0.017,0.016 0.022,0.025 0.02,0.038 0.038,0.078 0.069,0.111 l 1.356,1.443 c 0.016,0.017 0.036,0.023 0.054,0.037 0.018,0.015 0.03,0.034 0.05,0.047 l 1.903,1.159 c 0.012,0.007 0.025,0.004 0.038,0.011 0.021,0.011 0.038,0.027 0.061,0.035 l 2.362,0.81 c 0.015,0.005 0.03,0.004 0.044,0.008 0.011,0.002 0.02,0.01 0.031,0.012 l 2.604,0.46 c 0.029,0.006 0.058,0.008 0.086,0.008 0,0 0,0 0,0 h 2.69 c 0,0 0,0 10e-4,0 0.027,0 0.057,-0.002 0.086,-0.008 l 2.603,-0.46 c 0.011,-0.002 0.019,-0.009 0.03,-0.012 0.016,-0.004 0.031,-0.002 0.047,-0.008 l 2.34,-0.81 c 0.025,-0.009 0.043,-0.026 0.066,-0.039 0.012,-0.006 0.025,-0.003 0.037,-0.011 l 1.904,-1.203 c 0.019,-0.012 0.03,-0.031 0.047,-0.045 0.016,-0.013 0.033,-0.019 0.047,-0.033 l 1.357,-1.422 c 0.036,-0.038 0.059,-0.084 0.081,-0.129 0.004,-0.008 0.014,-0.012 0.017,-0.021 l 0.678,-1.597 v 0 c 0.008,-0.017 0.006,-0.035 0.012,-0.053 0.014,-0.048 0.028,-0.096 0.028,-0.144 v -4.898 0 c 0,-0.001 0,-0.002 0,-0.003 v -1.66 c 0,-0.002 -10e-4,-0.004 -10e-4,-0.007 -0.001,-0.032 -0.013,-0.065 -0.02,-0.098 -0.008,-0.033 -0.01,-0.067 -0.023,-0.097 -10e-4,-0.002 0,-0.005 -0.002,-0.007 l -0.721,-1.575 c -0.014,-0.027 -0.035,-0.047 -0.052,-0.07 -0.015,-0.021 -0.022,-0.047 -0.042,-0.066 l -1.355,-1.422 c -0.015,-0.016 -0.034,-0.021 -0.05,-0.034 -0.017,-0.014 -0.026,-0.032 -0.046,-0.044 l -1.902,-1.203 c -0.018,-0.011 -0.037,-0.012 -0.055,-0.021 -0.018,-0.009 -0.03,-0.022 -0.05,-0.029 l -2.34,-0.809 c -0.015,-0.005 -0.028,-0.002 -0.042,-0.006 -0.016,-0.004 -0.027,-0.013 -0.043,-0.016 l -2.625,-0.416 c -0.013,-0.002 -0.025,0.003 -0.038,0.002 -0.014,-10e-4 -0.026,-0.008 -0.04,-0.008 h -2.689 c -0.014,0 -0.025,0.007 -0.039,0.008 -0.016,0.002 -0.031,-0.004 -0.048,0 l -2.603,0.46 c -0.013,0.002 -0.023,0.011 -0.036,0.015 -0.014,0.003 -0.027,0 -0.041,0.005 l -2.341,0.81 c -0.018,0.006 -0.031,0.02 -0.047,0.028 -0.017,0.007 -0.034,0.008 -0.049,0.018 l -1.903,1.159 c -0.02,0.012 -0.031,0.031 -0.048,0.045 -0.018,0.015 -0.04,0.022 -0.056,0.04 l -1.334,1.422 c -0.018,0.02 -0.026,0.044 -0.041,0.065 -0.017,0.025 -0.04,0.046 -0.053,0.075 l -0.7,1.598 c 0,10e-4 0,0.003 -10e-4,0.004 -0.012,0.027 -0.013,0.06 -0.02,0.089 -0.008,0.034 -0.02,0.069 -0.021,0.104 z m 2.852,-2.625 1.798,-1.096 2.256,-0.779 2.517,-0.444 h 2.608 l 2.546,0.403 2.241,0.774 1.805,1.141 1.254,1.315 0.642,1.4 v 1.452 l -0.604,1.442 -1.246,1.307 -1.8,1.096 -2.256,0.781 -2.518,0.444 h -2.605 l -2.529,-0.404 -2.26,-0.774 -1.805,-1.141 -1.254,-1.315 -0.642,-1.399 v -1.47 l 0.624,-1.425 z m 15.814,11.796 -1.803,1.14 -2.251,0.779 -2.518,0.444 h -2.604 l -2.522,-0.445 -2.272,-0.779 -1.799,-1.095 -1.254,-1.335 -0.643,-1.422 v -1.533 -1.171 l 1.216,1.274 c 0.014,0.015 0.032,0.021 0.047,0.032 0.017,0.015 0.028,0.033 0.047,0.046 l 1.903,1.203 c 0.012,0.008 0.026,0.005 0.039,0.011 0.023,0.013 0.041,0.03 0.066,0.039 l 2.362,0.81 c 0.016,0.005 0.031,0.004 0.047,0.008 0.013,0.003 0.023,0.012 0.036,0.014 l 2.604,0.416 c 0.026,0.004 0.053,0.006 0.079,0.006 v 0 h 2.69 c 0,0 0,0 10e-4,0 0.027,0 0.057,-0.002 0.086,-0.008 l 2.603,-0.46 c 0.011,-0.002 0.019,-0.009 0.03,-0.012 0.016,-0.004 0.031,-0.002 0.047,-0.008 l 2.34,-0.81 c 0.023,-0.008 0.04,-0.024 0.061,-0.036 0.012,-0.006 0.025,-0.003 0.037,-0.01 l 1.902,-1.159 c 0.021,-0.013 0.033,-0.032 0.051,-0.047 0.017,-0.013 0.036,-0.02 0.051,-0.035 l 1.173,-1.229 v 2.643 l -0.603,1.42 z"
     id="path26" /><path
     fill="#000000"
     d="m 97.03896,59.924175 v -29.399 c 0,-0.371 -0.205,-0.711 -0.533,-0.884 L 46.39096,3.1721746 c -0.333,-0.177 -0.738,-0.149 -1.046,0.068 L 2.1419603,33.931175 c -0.264,0.188 -0.421,0.491 -0.421,0.815 v 29.443 c 0,0.371 0.205,0.711 0.533,0.885 l 50.1379997,26.469 c 0.146,0.077 0.307,0.115 0.467,0.115 0.204,0 0.407,-0.062 0.58,-0.186 l 43.181,-30.734 c 0.262,-0.187 0.419,-0.49 0.419,-0.814 z m -93.3179997,-24.085 48.6379997,25.656 v 27.769 l -48.6379997,-25.677 z m 18.4799997,-12.418 2.528,-0.404 2.584,-0.041 2.517,0.443 2.272,0.779 1.82,1.096 1.232,1.332 0.644,1.425 v 1.428 l -0.625,1.424 -1.232,1.333 -1.797,1.115 -2.253,0.779 -2.518,0.444 h -2.607 l -2.539,-0.444 -2.229,-0.778 -1.824,-1.099 -1.229,-1.31 -0.644,-1.424 v -1.431 l 0.604,-1.442 1.248,-1.309 1.804,-1.14 z m 11.745,13.712 -1.802,1.098 -2.249,0.819 -2.521,0.402 h -2.607 l -2.547,-0.402 -2.219,-0.775 -1.828,-1.143 -1.23,-1.27 -0.642,-1.421 v -1.576 -1.146 l 1.192,1.27 c 0.015,0.016 0.035,0.022 0.051,0.036 0.02,0.016 0.033,0.037 0.056,0.051 l 1.925,1.159 c 0.012,0.007 0.026,0.005 0.038,0.011 0.019,0.01 0.034,0.025 0.055,0.032 l 2.318,0.81 c 0.016,0.006 0.031,0.004 0.047,0.008 0.011,0.003 0.02,0.011 0.032,0.013 l 2.625,0.459 c 0.028,0.006 0.058,0.008 0.085,0.008 0,0 0,0 0,0 h 2.69 c 0,0 0,0 0,0 0.028,0 0.057,-0.002 0.086,-0.008 l 2.604,-0.459 c 0.011,-0.002 0.02,-0.009 0.03,-0.012 0.016,-0.004 0.031,-0.003 0.047,-0.008 l 2.341,-0.81 c 0.024,-0.008 0.042,-0.025 0.063,-0.037 0.012,-0.006 0.025,-0.004 0.037,-0.011 l 1.903,-1.182 c 0.021,-0.013 0.033,-0.032 0.051,-0.048 0.017,-0.014 0.038,-0.021 0.053,-0.037 l 1.167,-1.263 v 2.699 l -0.624,1.424 z m -18.606,-9.34 c -0.024,0.058 -0.034,0.118 -0.036,0.178 0,0.005 -0.003,0.01 -0.003,0.016 v 0 c 0,10e-4 0,0.002 0,0.003 v 1.638 3.238 1.684 c 0,0.002 10e-4,0.004 10e-4,0.006 0,0.032 0.013,0.063 0.02,0.095 0.007,0.034 0.009,0.069 0.022,0.1 0.001,0.002 0.001,0.004 0.001,0.006 l 0.722,1.598 c 0.005,0.011 0.016,0.015 0.022,0.025 0.021,0.04 0.041,0.082 0.075,0.116 l 1.335,1.378 c 0.014,0.015 0.033,0.021 0.048,0.033 0.017,0.014 0.027,0.031 0.046,0.043 l 1.925,1.203 c 0.012,0.008 0.025,0.005 0.038,0.011 0.021,0.012 0.039,0.028 0.062,0.037 l 2.318,0.81 c 0.017,0.006 0.033,0.004 0.049,0.009 0.013,0.003 0.024,0.012 0.038,0.014 l 2.625,0.415 c 0.026,0.004 0.052,0.006 0.078,0.006 v 0 h 2.69 v 0 c 0.026,0 0.053,-0.002 0.079,-0.006 l 2.604,-0.415 c 0.015,-0.003 0.026,-0.012 0.041,-0.015 0.018,-0.005 0.035,-0.004 0.052,-0.01 l 2.341,-0.854 c 0.021,-0.008 0.035,-0.023 0.054,-0.033 0.011,-0.006 0.024,-0.003 0.035,-0.01 l 1.903,-1.159 c 0.021,-0.013 0.034,-0.033 0.052,-0.049 0.017,-0.014 0.037,-0.021 0.052,-0.036 l 1.334,-1.422 c 0.032,-0.034 0.05,-0.075 0.071,-0.114 0.006,-0.011 0.018,-0.015 0.022,-0.026 l 0.7,-1.597 c 0,-0.001 0,-0.003 10e-4,-0.004 0.012,-0.027 0.013,-0.06 0.02,-0.089 0.008,-0.035 0.021,-0.07 0.021,-0.105 0,-0.001 0,-0.002 0,-0.003 v -4.914 c 0,-0.001 0,-0.001 0,-0.001 v -0.007 -1.641 c 0,-0.002 -0.001,-0.004 -0.001,-0.006 0,-0.032 -0.013,-0.063 -0.02,-0.095 -0.007,-0.034 -0.009,-0.069 -0.022,-0.1 -10e-4,-0.002 -10e-4,-0.004 -10e-4,-0.006 l -0.722,-1.598 c -0.011,-0.023 -0.03,-0.04 -0.044,-0.061 -0.015,-0.024 -0.024,-0.052 -0.044,-0.073 l -1.335,-1.443 c -0.017,-0.019 -0.039,-0.026 -0.058,-0.042 -0.019,-0.015 -0.031,-0.034 -0.052,-0.047 l -1.925,-1.159 c -0.017,-0.01 -0.035,-0.011 -0.052,-0.019 -0.016,-0.007 -0.027,-0.02 -0.044,-0.025 l -2.362,-0.81 c -0.013,-0.005 -0.026,-0.002 -0.039,-0.005 -0.013,-0.004 -0.022,-0.012 -0.036,-0.015 l -2.604,-0.459 c -0.014,-0.003 -0.027,0.002 -0.041,0 -0.018,-0.001 -0.036,-0.01 -0.054,-0.008 l -2.669,0.043 c -0.012,0 -0.022,0.007 -0.034,0.008 -0.013,10e-4 -0.024,-0.004 -0.037,-0.002 l -2.603,0.416 c -0.016,0.003 -0.027,0.012 -0.042,0.016 -0.014,0.004 -0.028,0.001 -0.042,0.006 l -0.341,0.118 15.843,-11.255 -0.484,1.105 c -0.001,0.003 0,0.005 -0.001,0.007 -0.012,0.028 -0.013,0.061 -0.02,0.091 -0.007,0.034 -0.02,0.069 -0.02,0.104 0,0.003 -10e-4,0.005 -10e-4,0.007 l 0.021,1.638 v 0.003 0 l -0.019,3.249 c 0,0.002 10e-4,0.003 10e-4,0.005 0,0.002 -10e-4,0.003 -10e-4,0.005 l 0.021,1.66 v 0.001 0.002 c 10e-4,0.068 0.016,0.134 0.042,0.193 l 0.699,1.616 c 0.003,0.007 0.01,0.009 0.014,0.016 0.023,0.049 0.049,0.097 0.089,0.137 l 1.356,1.378 c 0.014,0.014 0.032,0.02 0.046,0.031 0.016,0.013 0.026,0.03 0.043,0.041 l 1.903,1.203 c 0.012,0.008 0.026,0.005 0.039,0.012 0.023,0.012 0.041,0.029 0.066,0.038 l 2.362,0.81 c 0.016,0.006 0.031,0.004 0.047,0.008 0.013,0.003 0.023,0.012 0.036,0.014 l 2.603,0.416 c 0.026,0.004 0.053,0.006 0.079,0.006 v 0 h 2.691 c 0,0 0,0 0,0 0.028,0 0.057,-0.002 0.086,-0.008 l 2.603,-0.46 c 0.012,-0.002 0.021,-0.01 0.032,-0.013 0.016,-0.004 0.03,-0.002 0.046,-0.008 l 2.318,-0.809 c 0.021,-0.007 0.035,-0.022 0.055,-0.032 0.013,-0.006 0.027,-0.003 0.039,-0.011 l 1.926,-1.16 c 0.022,-0.014 0.037,-0.035 0.057,-0.053 0.016,-0.013 0.035,-0.019 0.049,-0.034 l 1.334,-1.422 c 0.036,-0.038 0.059,-0.083 0.08,-0.128 0.004,-0.009 0.014,-0.012 0.017,-0.021 l 0.678,-1.615 c 0.025,-0.061 0.04,-0.126 0.04,-0.196 v -0.001 -0.001 -4.896 c 0,-10e-4 0,-10e-4 0,-0.002 v 0 -1.662 c 0,-10e-4 0,-0.002 0,-0.003 -10e-4,-0.035 -0.014,-0.069 -0.021,-0.104 -0.007,-0.03 -0.008,-0.062 -0.02,-0.09 -10e-4,-0.002 0,-0.003 -10e-4,-0.004 l -0.364,-0.829 15.792,8.34 h -2.455 c -0.014,0 -0.024,0.007 -0.038,0.008 -0.014,10e-4 -0.027,-0.004 -0.041,-0.002 l -2.601,0.414 c -0.018,0.003 -0.031,0.014 -0.049,0.018 -0.016,0.005 -0.031,0.002 -0.046,0.008 l -2.319,0.854 c -0.016,0.006 -0.025,0.018 -0.039,0.024 -0.015,0.007 -0.03,0.007 -0.045,0.016 l -1.902,1.138 c -0.021,0.012 -0.033,0.031 -0.051,0.046 -0.019,0.015 -0.041,0.022 -0.058,0.041 l -1.339,1.425 c 0,0.001 0,0.002 -0.001,0.002 l -0.016,0.017 c -0.02,0.021 -0.028,0.047 -0.044,0.069 -0.017,0.026 -0.039,0.047 -0.052,0.077 l -0.678,1.595 c -0.019,0.042 -0.022,0.089 -0.028,0.135 -0.003,0.021 -0.013,0.042 -0.013,0.062 v 0 1.641 0.007 10e-4 3.273 1.641 c 0,10e-4 10e-4,0.002 10e-4,0.003 0,0.035 0.013,0.069 0.021,0.104 0.007,0.03 0.008,0.062 0.02,0.09 0.001,0.002 0.001,0.003 0.001,0.004 l 0.7,1.597 c 0.005,0.011 0.017,0.016 0.022,0.025 0.021,0.04 0.039,0.081 0.071,0.116 l 1.356,1.444 c 0.016,0.017 0.037,0.023 0.055,0.038 0.02,0.016 0.033,0.037 0.055,0.05 l 1.926,1.138 c 0.011,0.007 0.024,0.004 0.036,0.01 0.019,0.009 0.031,0.023 0.05,0.03 l 2.342,0.831 c 0.015,0.006 0.03,0.004 0.046,0.008 0.013,0.004 0.021,0.012 0.034,0.014 l 2.603,0.459 c 0.029,0.006 0.058,0.008 0.087,0.008 v 0 c 0.002,0 0.006,0 0.008,0 l 2.713,-0.044 c 0.002,0 0.004,-10e-4 0.005,-10e-4 0.021,0 0.044,-0.002 0.065,-0.005 l 2.604,-0.415 c 0.016,-0.002 0.026,-0.012 0.04,-0.015 0.017,-0.004 0.033,-0.003 0.05,-0.009 l 2.34,-0.831 c 0.022,-0.008 0.038,-0.024 0.059,-0.036 0.014,-0.006 0.027,-0.003 0.039,-0.011 l 1.883,-1.182 c 0.02,-0.013 0.031,-0.032 0.049,-0.047 0.016,-0.013 0.035,-0.019 0.049,-0.034 l 1.356,-1.443 c 0.034,-0.036 0.054,-0.078 0.075,-0.12 0.004,-0.009 0.015,-0.013 0.019,-0.022 l 0.699,-1.598 c 0,-10e-4 0,-0.002 0.001,-0.002 0.014,-0.032 0.016,-0.068 0.021,-0.104 0.007,-0.031 0.019,-0.062 0.02,-0.092 0,-10e-4 0,-0.002 0,-0.003 v -4.871 c 0,-0.001 0,-0.001 0,-0.001 v -0.006 c 0,-0.001 -10e-4,-0.002 -10e-4,-0.003 0,-0.002 10e-4,-0.003 10e-4,-0.004 l -0.021,-1.685 c -10e-4,-0.064 -0.014,-0.131 -0.042,-0.194 l -0.348,-0.793 11.562,6.106 -41.72,29.63 c -0.007,-0.082 -0.025,-0.165 -0.075,-0.239 -0.153,-0.23 -0.463,-0.292 -0.693,-0.139 l -0.072,0.048 -47.9029997,-25.267 11.6389997,-8.269 z m 40.222,-5.998 -1.827,1.102 -2.227,0.776 -2.521,0.445 h -2.606 l -2.528,-0.404 -2.26,-0.774 -1.807,-1.143 -1.25,-1.27 -0.623,-1.44 -0.021,-1.561 0.008,-1.155 1.206,1.283 c 0.016,0.017 0.036,0.023 0.054,0.037 0.018,0.015 0.03,0.034 0.05,0.047 l 1.903,1.159 c 0.012,0.007 0.025,0.004 0.038,0.011 0.021,0.011 0.038,0.027 0.061,0.035 l 2.362,0.81 c 0.015,0.005 0.03,0.004 0.044,0.008 0.011,0.002 0.02,0.01 0.031,0.012 l 2.603,0.46 c 0.029,0.006 0.058,0.008 0.086,0.008 0,0 0,0 0,0 0.002,0 0.005,0 0.008,0 l 2.691,-0.044 c 10e-4,0 0.003,-0.001 0.004,-0.001 0.022,-0.001 0.044,-0.002 0.066,-0.005 l 2.603,-0.416 c 0.014,-0.002 0.024,-0.011 0.038,-0.015 0.016,-0.004 0.032,-0.002 0.048,-0.008 l 2.318,-0.81 c 0.024,-0.008 0.041,-0.025 0.062,-0.037 0.013,-0.006 0.026,-0.003 0.039,-0.011 l 1.924,-1.203 c 0.021,-0.013 0.032,-0.032 0.05,-0.047 0.017,-0.014 0.036,-0.02 0.05,-0.035 l 1.148,-1.224 v 2.663 l -0.604,1.442 z m 0.517,-11.245 0.688,0.721 0.623,1.422 v 1.455 l -0.604,1.421 -1.229,1.31 -1.824,1.141 -2.219,0.773 -2.531,0.405 -2.607,0.042 -2.516,-0.444 -2.272,-0.779 -1.799,-1.095 -1.251,-1.332 -0.625,-1.426 -0.019,-1.43 0.623,-1.422 1.23,-1.311 1.802,-1.1400004 2.249,-0.776 2.519,-0.445 h 2.627 l 2.441,0.432 z m -9.805,-3.9100004 c -0.015,0 -0.027,0.007 -0.042,0.009 -0.015,10e-4 -0.029,-0.004 -0.045,-0.001 l -2.603,0.46 c -0.014,0.003 -0.023,0.011 -0.036,0.015 -0.014,0.003 -0.027,0 -0.04,0.005 l -0.352,0.121 2.845,-2.021 2.674,1.412 z m 34.331,28.3730004 -1.785,1.12 -2.238,0.795 -2.529,0.403 -2.629,0.042 -2.514,-0.443 -2.252,-0.8 -1.825,-1.078 -1.248,-1.329 -0.624,-1.423 v -1.535 -1.167 l 1.192,1.27 c 0.016,0.017 0.037,0.024 0.055,0.038 0.018,0.014 0.029,0.033 0.049,0.045 l 1.924,1.181 c 0.012,0.007 0.024,0.004 0.036,0.01 0.021,0.011 0.036,0.027 0.058,0.035 l 2.342,0.832 c 0.018,0.007 0.036,0.005 0.055,0.01 0.013,0.003 0.023,0.012 0.037,0.014 l 2.604,0.394 c 0.024,0.004 0.049,0.006 0.074,0.006 v 0 h 2.713 v 0 c 0.027,0 0.055,-0.002 0.083,-0.007 l 2.604,-0.438 c 0.014,-0.002 0.023,-0.011 0.037,-0.015 0.016,-0.004 0.031,-0.002 0.048,-0.008 l 2.34,-0.831 c 0.022,-0.008 0.038,-0.024 0.059,-0.036 0.014,-0.006 0.027,-0.003 0.039,-0.011 l 1.883,-1.182 c 0.019,-0.012 0.029,-0.03 0.046,-0.044 0.015,-0.013 0.033,-0.018 0.047,-0.032 l 1.196,-1.235 v 2.664 l -0.622,1.422 z m 0.574,-11.206 0.656,0.678 0.624,1.423 0.019,1.475 -0.619,1.415 -1.25,1.291 -1.789,1.123 -2.24,0.796 -2.522,0.424 h -2.635 l -2.518,-0.381 -2.245,-0.798 -1.821,-1.117 -1.253,-1.334 -0.624,-1.423 v -1.434 l 0.604,-1.422 1.246,-1.327 1.803,-1.077 2.227,-0.819 2.521,-0.402 h 2.629 l 2.402,0.383 z m -27.82,37.645 41.68,-29.604 v 27.561 l -41.68,29.667 z"
     id="path28" /><path
     style="fill:#0000ff;stroke-width:0.124008"
     d="M 52.849959,60.19049 C 52.760482,60.082676 52.52796,60.012267 52.307716,60.026294 52.009332,60.045298 46.565213,57.225143 28.236607,47.557006 15.209573,40.68539 4.5097443,35.023163 4.4592092,34.974277 4.408674,34.925393 5.5247454,34.067183 6.9393679,33.067144 8.3539903,32.067106 10.84752,30.299103 12.480545,29.138248 c 1.633024,-1.160853 2.987822,-2.091957 3.010662,-2.069117 0.02284,0.02284 -0.01584,0.192407 -0.08595,0.376817 -0.0764,0.200948 -0.127477,1.741931 -0.127477,3.845963 v 3.510671 l 0.421757,0.91454 c 1.599704,3.468805 7.579943,5.539936 13.20534,4.573394 3.703781,-0.636374 6.514659,-2.40436 7.573039,-4.763291 l 0.377245,-0.840806 v -3.453793 -3.453793 l -0.417733,-0.905927 c -0.250191,-0.542582 -0.697598,-1.211923 -1.115516,-1.668867 -2.234359,-2.442991 -7.512726,-3.820811 -11.778703,-3.07461 -0.603444,0.105554 -1.154084,0.172945 -1.223644,0.149758 -0.112662,-0.03755 14.681773,-10.635125 14.846859,-10.635125 0.03692,0 -0.01801,0.164639 -0.122067,0.365865 -0.156436,0.302515 -0.189196,0.969932 -0.189196,3.854463 v 3.488597 l 0.384561,0.888841 c 0.988757,2.285327 4.024783,4.148443 7.705621,4.728706 5.688366,0.896736 11.633416,-1.249303 13.109136,-4.732126 l 0.378063,-0.89226 v -3.487172 c 0,-2.261873 -0.0471,-3.575185 -0.134055,-3.737656 -0.07373,-0.137766 -0.115061,-0.269478 -0.09185,-0.292693 0.02321,-0.02321 3.445705,1.753328 7.605533,3.947873 l 7.563325,3.990081 -1.488095,0.08481 c -1.923549,0.109624 -3.198627,0.353962 -4.614488,0.884255 -2.565392,0.960834 -4.353167,2.427036 -5.028078,4.123658 l -0.341969,0.85966 9.92e-4,3.434351 9.92e-4,3.43435 0.419126,0.905927 c 0.821013,1.774592 2.456907,3.091407 4.971141,4.001522 6.116294,2.214009 13.896397,0.248062 15.821633,-3.997954 l 0.365481,-0.806051 v -3.587231 c 0,-2.366014 -0.04632,-3.673773 -0.13605,-3.841441 -0.09249,-0.172814 -0.09417,-0.239692 -0.0052,-0.208862 0.174454,0.06048 11.162813,5.869799 11.136511,5.887644 -0.01518,0.01029 -35.560656,25.242204 -40.710915,28.898585 -0.663881,0.471317 -0.779622,0.515604 -0.916491,0.350688 z m 0.998682,-6.642133 c 3.852884,-0.700286 6.539065,-2.346792 7.631538,-4.677782 l 0.424583,-0.905928 v -3.510205 -3.510203 l -0.382334,-0.843218 c -1.027696,-2.266538 -4.026999,-4.142686 -7.507232,-4.695988 -5.809783,-0.923662 -11.614652,1.095166 -13.263232,4.612714 l -0.424583,0.905928 v 3.530079 3.530078 l 0.364178,0.803177 c 0.200426,0.442032 0.688323,1.166549 1.085069,1.611306 2.308624,2.588 7.586766,3.965265 12.072013,3.150042 z"
     id="path16" /><path
     style="fill:#0000ff;stroke-width:0.124008"
     d="m 48.325893,47.480176 c -3.2206,-0.580821 -5.792665,-2.18834 -6.631131,-4.144402 -0.574042,-1.339187 -0.214516,-2.839202 0.976994,-4.076213 1.778053,-1.845952 4.922131,-2.938432 8.453979,-2.937524 2.740227,7.05e-4 5.13491,0.605222 6.934781,1.750625 2.45935,1.565084 3.290704,3.484369 2.371614,5.475164 -1.390958,3.012885 -7.036468,4.846661 -12.106237,3.93235 z"
     id="path18" /><path
     style="fill:#0000ff;stroke-width:0.124008"
     d="m 23.338294,34.268271 c -3.09589,-0.553957 -5.701207,-2.120786 -6.586361,-3.961015 -1.452668,-3.020087 1.558204,-6.169537 6.710369,-7.019218 2.582359,-0.425876 4.890995,-0.258694 7.316468,0.52983 3.768269,1.225068 5.74773,3.933428 4.64125,6.350301 -0.909462,1.986526 -3.437749,3.524722 -6.752222,4.108015 -1.287457,0.226571 -4.041903,0.222481 -5.329504,-0.0079 z"
     id="path20" /><path
     style="fill:#0000ff;stroke-width:0.124008"
     d="m 45.137623,18.960678 c -2.599467,-0.484664 -4.534373,-1.378435 -5.827674,-2.691916 -1.77642,-1.804137 -1.781485,-3.81833 -0.01422,-5.654482 2.175942,-2.2607592 6.900053,-3.440954 10.833549,-2.7064775 1.045943,0.1953023 1.440684,0.3552282 3.399627,1.3773318 1.218955,0.6360055 2.428405,1.3480137 2.687666,1.5822407 0.259261,0.234227 0.612799,0.734759 0.78564,1.112294 1.419809,3.101271 -1.9786,6.351768 -7.35461,7.03451 -1.919866,0.243819 -2.98296,0.231207 -4.509978,-0.0535 z"
     id="path22" /><path
     style="fill:#000080;stroke-width:0.124008"
     d="m 43.675595,7.0154666 c 0,-0.024765 0.528474,-0.4196441 1.174385,-0.8775099 l 1.174386,-0.8324834 1.150763,0.6251732 1.150764,0.6251731 -1.054068,0.00198 c -0.894354,0.00168 -2.175666,0.1706607 -3.317212,0.4374782 -0.15346,0.035869 -0.279018,0.044954 -0.279018,0.020189 z"
     id="path24" /><path
     style="fill:#000080;stroke-width:0.124008"
     d="M 28.024185,76.343847 3.7542237,63.541383 3.7496317,49.73925 3.7450397,35.937116 5.5831255,36.904428 C 6.5940728,37.43645 17.53017,43.200981 29.885563,49.714498 l 22.464353,11.842758 0.0031,13.795883 c 0.0017,7.587736 -0.01084,13.795273 -0.02788,13.794528 -0.01705,-7.45e-4 -10.952485,-5.762463 -24.300964,-12.80382 z"
     id="path27" /><path
     style="fill:#000080;stroke-width:0.124008"
     d="m 53.478648,75.181846 0.0064,-13.748598 20.09582,-14.260913 C 84.633596,39.328833 93.977803,32.697747 94.345799,32.436587 l 0.669082,-0.474836 v 13.691661 13.691662 l -0.527034,0.373877 C 89.585816,63.196456 54.165859,88.408573 53.875248,88.627219 l -0.403026,0.303224 z"
     id="path29" /><path
     style="fill:#000080;stroke-width:0.124008"
     d="M 48.580365,52.429306 C 45.206806,51.798607 42.790814,50.378472 41.80542,48.446953 41.475682,47.800618 41.443452,47.625111 41.443452,46.47584 v -1.261604 l 0.651042,0.612362 c 0.926609,0.871559 2.360446,1.722775 3.640803,2.161413 4.99811,1.712305 11.363162,0.75521 14.402352,-2.165639 l 0.651041,-0.625691 v 1.212854 c 0,1.53513 -0.258133,2.211785 -1.228303,3.219787 -1.377498,1.431214 -3.282257,2.322905 -6.016847,2.81672 -1.661587,0.300051 -3.298226,0.294532 -4.963175,-0.01674 z"
     id="path31" /><path
     style="fill:#000080;stroke-width:0.124008"
     d="M 70.027282,37.073278 C 67.628077,36.62371 65.260705,35.486267 64.223321,34.284669 63.268711,33.178949 63.02348,32.519747 63.022045,31.05554 l -0.0012,-1.235843 0.651042,0.635688 c 1.971863,1.925362 5.247704,3.015164 9.057546,3.013251 3.751514,-0.0019 7.008587,-1.095227 8.985609,-3.016316 l 0.651041,-0.632623 v 1.256564 c 0,1.51048 -0.203606,2.083973 -1.112238,3.13282 -2.049644,2.365936 -7.061629,3.644628 -11.226551,2.864197 z"
     id="path33" /><path
     style="fill:#000080;stroke-width:0.124008"
     d="M 44.853671,23.80967 C 43.162383,23.490108 41.759124,22.967516 40.644699,22.242197 39.377394,21.417375 38.694524,20.703789 38.290543,19.782153 38.014636,19.152702 37.97196,18.882991 37.976599,17.798026 l 0.0054,-1.255651 0.583669,0.633513 c 1.209441,1.312726 3.584391,2.383553 6.45998,2.912704 3.404611,0.626498 7.72945,-0.146741 10.398946,-1.85923 0.562256,-0.360688 1.216856,-0.887814 1.454667,-1.171392 l 0.432385,-0.515595 0.0024,1.273804 c 0.0022,1.144401 -0.03381,1.352264 -0.354309,2.046131 -1.396924,3.024301 -7.11818,4.889801 -12.106065,3.94736 z"
     id="path35" /><path
     style="fill:#000080;stroke-width:0.124008"
     d="m 23.400298,39.180571 c -3.160884,-0.539622 -5.751332,-2.072766 -6.641481,-3.930727 -0.33211,-0.693194 -0.364772,-0.877406 -0.362796,-2.04613 l 0.0022,-1.284355 0.586866,0.624727 c 1.145429,1.219325 3.538979,2.33796 5.974129,2.792033 1.775891,0.331144 4.451625,0.329831 6.214562,-0.003 2.455376,-0.463628 4.459362,-1.392778 5.852293,-2.713418 l 0.713045,-0.676041 -9.8e-5,1.227954 c -8.8e-5,1.104612 -0.0365,1.30269 -0.362482,1.972002 -1.518564,3.11791 -6.844262,4.913125 -11.976209,4.037005 z"
     id="path37" /><path
     style="fill:#0000ff;stroke-width:0.124008"
     d="m 69.779266,32.101958 c -3.137543,-0.584802 -5.54986,-2.098988 -6.439365,-4.041924 -1.882983,-4.112976 4.886215,-8.074237 11.81835,-6.91597 1.105064,0.184642 1.367904,0.291407 3.549586,1.441846 1.295883,0.683341 2.489047,1.360907 2.651474,1.505702 0.162428,0.144795 0.455352,0.598085 0.650943,1.007311 0.721223,1.508976 0.388904,3.111433 -0.904067,4.359453 -1.396414,1.347866 -3.372446,2.271879 -5.791265,2.708055 -1.424305,0.25684 -3.970899,0.22718 -5.535656,-0.06447 z"
     id="path39" /></svg>
