<svg id="svg" version="1.1" xmlns="http://www.w3.org/2000/svg" xmlns:xlink="http://www.w3.org/1999/xlink" width="400" height="304.09590409590413" viewBox="0, 0, 400,304.09590409590413"><g id="svgg"><path id="path0" d="M241.453 2.445 C 241.407 2.563,239.795 2.885,237.871 3.161 C 235.947 3.436,234.099 3.724,233.764 3.800 C 232.565 4.074,226.102 5.190,223.118 5.639 C 221.445 5.891,219.802 6.221,219.468 6.372 C 219.133 6.523,217.490 6.812,215.817 7.014 C 214.144 7.216,212.639 7.485,212.471 7.611 C 212.304 7.737,210.696 8.013,208.897 8.223 C 207.099 8.433,205.627 8.698,205.627 8.812 C 205.627 8.925,204.122 9.197,202.281 9.416 C 200.441 9.635,198.935 9.933,198.935 10.078 C 198.935 10.223,198.559 10.343,198.099 10.344 C 197.218 10.346,192.048 11.085,190.542 11.425 C 189.304 11.704,184.657 12.451,183.650 12.533 C 183.190 12.570,182.814 12.687,182.814 12.791 C 182.814 12.896,181.411 13.157,179.696 13.372 C 177.981 13.587,176.441 13.865,176.274 13.989 C 176.106 14.114,174.430 14.395,172.548 14.614 C 170.665 14.833,169.125 15.103,169.125 15.214 C 169.125 15.324,167.723 15.594,166.010 15.812 C 164.296 16.030,162.687 16.321,162.435 16.459 C 162.183 16.596,160.266 16.926,158.175 17.192 C 156.084 17.459,153.962 17.802,153.460 17.955 C 152.958 18.108,151.247 18.453,149.658 18.721 C 143.208 19.812,139.907 20.383,136.578 20.983 C 134.654 21.330,131.711 21.824,130.038 22.082 C 128.365 22.339,126.722 22.667,126.388 22.811 C 126.053 22.955,124.411 23.238,122.738 23.440 C 121.065 23.642,119.559 23.906,119.392 24.028 C 119.224 24.149,117.240 24.484,114.981 24.773 C 112.722 25.062,110.601 25.415,110.266 25.558 C 109.731 25.787,104.814 26.550,103.802 26.561 C 103.593 26.563,103.422 26.657,103.422 26.770 C 103.422 26.883,102.108 27.136,100.501 27.334 C 98.895 27.531,97.329 27.827,97.023 27.991 C 96.717 28.155,96.115 28.289,95.685 28.289 C 94.447 28.289,94.803 29.351,96.654 31.180 C 97.030 31.552,97.338 32.005,97.338 32.187 C 97.338 32.369,97.512 32.627,97.724 32.761 C 98.121 33.011,99.050 34.107,100.380 35.894 C 100.798 36.456,101.414 37.234,101.749 37.624 C 102.084 38.014,102.592 38.640,102.878 39.014 C 103.522 39.856,106.451 43.447,107.072 44.156 C 107.323 44.442,107.802 45.042,108.137 45.489 C 108.785 46.356,110.370 48.300,110.875 48.847 C 111.042 49.029,111.452 49.566,111.787 50.042 C 112.122 50.518,112.703 51.231,113.080 51.627 C 113.456 52.023,113.764 52.410,113.764 52.486 C 113.764 52.645,117.801 57.617,118.486 58.301 C 118.733 58.548,118.936 58.844,118.936 58.957 C 118.936 59.071,119.358 59.643,119.872 60.228 C 120.386 60.814,121.640 62.354,122.658 63.650 C 123.676 64.947,124.624 66.008,124.764 66.008 C 124.904 66.008,125.019 66.180,125.019 66.391 C 125.019 66.602,125.329 67.115,125.708 67.532 C 126.088 67.948,126.941 68.973,127.606 69.810 C 128.271 70.646,129.500 72.169,130.339 73.193 C 131.177 74.218,132.205 75.494,132.624 76.030 C 134.441 78.358,134.084 78.212,136.760 77.724 C 144.867 76.246,157.031 73.431,161.908 71.906 C 177.994 66.874,187.786 62.301,195.894 56.035 C 196.646 55.453,199.521 52.695,202.281 49.906 C 214.536 37.525,226.124 32.506,248.669 29.815 C 249.840 29.675,253.673 29.463,257.186 29.344 C 264.033 29.112,264.235 29.083,263.653 28.429 C 263.442 28.193,262.996 27.639,262.662 27.199 C 262.327 26.758,261.677 25.950,261.217 25.402 C 260.757 24.854,260.380 24.328,260.380 24.232 C 260.380 24.136,260.072 23.733,259.696 23.336 C 259.319 22.939,258.532 22.026,257.947 21.307 C 257.361 20.588,256.604 19.687,256.264 19.304 C 255.924 18.922,255.308 18.168,254.895 17.629 C 253.895 16.323,253.256 15.517,252.493 14.601 C 252.145 14.183,250.887 12.616,249.696 11.121 C 248.506 9.625,247.377 8.230,247.188 8.021 C 246.999 7.812,246.502 7.141,246.084 6.531 C 245.665 5.921,244.947 5.068,244.487 4.637 C 244.027 4.206,243.650 3.740,243.650 3.600 C 243.650 2.822,241.707 1.801,241.453 2.445 M145.229 35.459 C 159.854 38.017,168.564 50.000,159.914 55.662 C 150.299 61.957,129.834 54.084,128.760 43.677 C 128.137 37.646,135.819 33.813,145.229 35.459 " stroke="none" fill="#db839b" fill-rule="evenodd"></path><path id="path1" d="M263.871 29.213 C 263.771 29.375,262.028 29.506,259.968 29.506 C 243.727 29.506,226.701 33.350,215.817 39.475 C 210.103 42.691,206.702 45.474,201.861 50.894 C 196.812 56.548,187.569 62.529,177.338 66.763 C 176.251 67.213,174.951 67.765,174.449 67.988 C 168.679 70.558,148.950 75.895,139.011 77.573 C 135.694 78.133,134.710 78.459,134.974 78.908 C 135.376 79.595,137.008 81.600,137.567 82.096 C 137.859 82.356,138.099 82.737,138.099 82.942 C 138.099 83.148,138.277 83.425,138.496 83.559 C 138.714 83.693,139.706 84.829,140.701 86.084 C 141.696 87.338,142.646 88.533,142.814 88.738 C 142.981 88.943,143.392 89.471,143.726 89.911 C 144.061 90.352,144.711 91.161,145.171 91.708 C 145.631 92.256,146.008 92.782,146.008 92.878 C 146.008 92.974,146.316 93.390,146.692 93.802 C 148.061 95.302,149.208 96.651,149.506 97.109 C 150.974 99.370,154.126 102.814,154.726 102.814 C 155.906 102.814,160.123 102.174,160.760 101.898 C 161.095 101.753,162.772 101.461,164.487 101.249 C 166.202 101.038,167.605 100.755,167.605 100.622 C 167.605 100.489,167.981 100.379,168.441 100.378 C 168.901 100.377,170.578 100.163,172.167 99.902 C 173.757 99.641,175.324 99.431,175.651 99.434 C 175.978 99.437,176.389 99.328,176.564 99.192 C 176.739 99.056,178.354 98.763,180.152 98.540 C 181.951 98.317,183.422 98.046,183.422 97.938 C 183.422 97.830,184.996 97.560,186.920 97.338 C 188.844 97.117,190.418 96.843,190.418 96.730 C 190.418 96.617,191.821 96.348,193.536 96.134 C 195.251 95.919,196.791 95.644,196.958 95.523 C 197.125 95.402,198.700 95.121,200.456 94.899 C 202.213 94.677,203.719 94.410,203.802 94.306 C 203.886 94.202,205.597 93.888,207.605 93.609 C 209.612 93.329,211.597 93.020,212.015 92.921 C 213.477 92.575,219.497 91.546,222.966 91.049 C 224.890 90.773,226.532 90.456,226.616 90.345 C 226.700 90.233,228.205 89.918,229.962 89.645 C 237.056 88.540,239.863 88.052,240.152 87.873 C 240.319 87.770,241.825 87.513,243.498 87.301 C 245.171 87.089,246.677 86.813,246.844 86.688 C 247.011 86.564,248.586 86.300,250.342 86.103 C 252.099 85.905,254.152 85.562,254.905 85.340 C 255.658 85.118,257.643 84.765,259.316 84.557 C 260.989 84.348,262.494 84.077,262.662 83.953 C 262.829 83.830,264.335 83.561,266.008 83.356 C 267.681 83.151,269.186 82.879,269.354 82.752 C 269.521 82.625,271.129 82.344,272.928 82.128 C 274.726 81.912,276.198 81.642,276.198 81.528 C 276.198 81.415,277.738 81.146,279.620 80.932 C 281.502 80.718,283.110 80.451,283.194 80.338 C 283.278 80.226,285.262 79.842,287.605 79.484 C 294.697 78.403,298.278 77.771,299.011 77.472 C 299.262 77.370,299.946 77.246,300.530 77.198 C 302.288 77.053,302.059 76.015,299.696 73.423 C 299.319 73.010,299.011 72.580,299.011 72.468 C 299.011 72.356,298.741 71.986,298.411 71.646 C 297.488 70.693,295.970 68.836,295.970 68.658 C 295.970 68.489,294.445 66.668,293.308 65.479 C 292.932 65.085,292.624 64.656,292.624 64.526 C 292.624 64.395,292.281 63.967,291.863 63.574 C 291.445 63.181,291.103 62.685,291.103 62.472 C 291.103 62.258,290.915 61.974,290.685 61.840 C 290.302 61.617,288.430 59.374,286.540 56.873 C 286.122 56.320,285.564 55.651,285.300 55.386 C 285.036 55.121,284.420 54.360,283.931 53.693 C 283.442 53.027,282.665 52.107,282.205 51.650 C 281.745 51.193,281.369 50.728,281.369 50.617 C 281.369 50.507,280.924 49.904,280.380 49.279 C 279.837 48.653,279.057 47.699,278.649 47.158 C 278.240 46.617,277.522 45.764,277.052 45.261 C 276.582 44.758,276.198 44.276,276.198 44.190 C 276.198 44.105,275.821 43.587,275.361 43.039 C 274.901 42.491,274.251 41.683,273.916 41.242 C 273.582 40.802,273.170 40.273,273.001 40.068 C 272.833 39.863,271.985 38.806,271.117 37.719 C 270.250 36.631,269.258 35.453,268.914 35.101 C 268.570 34.749,268.289 34.329,268.289 34.167 C 268.289 34.006,267.981 33.585,267.605 33.232 C 266.622 32.310,266.099 31.635,266.367 31.635 C 266.495 31.635,266.295 31.422,265.923 31.161 C 265.551 30.901,265.247 30.559,265.247 30.401 C 265.247 29.919,264.066 28.898,263.871 29.213 M137.490 35.573 C 128.772 37.224,126.412 43.785,132.302 49.995 C 140.605 58.749,158.537 60.262,162.476 52.540 C 166.587 44.482,149.984 33.208,137.490 35.573 M116.654 68.333 C 115.316 68.572,112.783 69.011,111.027 69.307 C 109.270 69.604,107.627 69.931,107.376 70.035 C 107.125 70.138,105.551 70.429,103.878 70.682 C 102.205 70.935,100.152 71.276,99.316 71.441 C 98.479 71.606,97.144 71.828,96.350 71.935 C 94.799 72.143,94.486 72.671,95.370 73.587 C 95.626 73.852,96.874 75.369,98.143 76.958 C 99.412 78.548,100.571 79.894,100.719 79.949 C 100.867 80.005,100.989 80.214,100.989 80.414 C 100.989 80.754,102.037 82.085,103.426 83.509 C 103.759 83.849,104.030 84.246,104.030 84.391 C 104.030 84.535,104.510 85.119,105.095 85.687 C 105.681 86.256,106.160 86.837,106.160 86.979 C 106.160 87.121,106.500 87.559,106.915 87.953 C 107.330 88.347,107.672 88.790,107.675 88.939 C 107.678 89.087,107.989 89.516,108.365 89.893 C 109.327 90.858,110.838 92.666,112.171 94.449 C 112.796 95.285,113.479 96.079,113.688 96.213 C 113.897 96.347,114.068 96.573,114.068 96.716 C 114.068 96.970,115.368 98.571,116.730 99.996 C 117.106 100.390,117.414 100.828,117.414 100.970 C 117.414 101.113,117.754 101.551,118.170 101.945 C 118.585 102.339,118.927 102.783,118.930 102.931 C 118.933 103.079,119.243 103.494,119.620 103.853 C 119.996 104.212,120.646 104.971,121.065 105.540 C 121.483 106.110,122.339 107.200,122.968 107.964 C 128.091 114.191,128.717 114.981,128.522 114.981 C 128.412 114.981,128.811 115.442,129.408 116.005 C 130.005 116.569,130.494 117.155,130.494 117.307 C 130.494 117.459,130.734 117.800,131.027 118.064 C 131.598 118.580,131.979 119.035,133.374 120.869 C 134.408 122.229,134.084 122.225,140.684 120.945 C 148.345 119.460,153.213 118.306,161.369 116.044 C 172.276 113.019,184.656 107.682,191.965 102.855 C 197.101 99.463,196.830 99.151,189.962 100.559 C 189.627 100.628,187.848 100.897,186.008 101.158 C 184.167 101.419,182.388 101.757,182.053 101.909 C 181.719 102.062,180.303 102.336,178.907 102.519 C 177.511 102.701,176.072 102.963,175.710 103.101 C 175.348 103.239,173.752 103.511,172.164 103.706 C 170.577 103.901,169.004 104.182,168.669 104.330 C 168.335 104.478,166.692 104.810,165.019 105.067 C 163.346 105.325,160.745 105.743,159.240 105.997 C 157.734 106.250,156.125 106.488,155.665 106.525 C 155.205 106.563,154.829 106.686,154.829 106.799 C 154.829 107.377,152.729 107.227,152.444 106.629 C 152.076 105.855,151.307 104.869,150.078 103.593 C 149.556 103.052,148.891 102.246,148.599 101.801 C 148.205 101.200,147.898 101.037,147.395 101.163 C 145.643 101.603,138.900 99.133,135.441 96.784 C 128.854 92.311,126.787 84.640,131.393 81.763 C 132.116 81.312,132.157 81.106,131.635 80.554 C 131.426 80.332,130.710 79.467,130.043 78.631 C 129.377 77.794,128.727 77.065,128.598 77.009 C 128.470 76.953,128.365 76.753,128.365 76.563 C 128.365 76.374,128.095 75.941,127.765 75.600 C 127.241 75.060,126.590 74.295,123.785 70.925 C 123.460 70.534,123.194 70.114,123.194 69.991 C 123.194 69.868,122.852 69.470,122.433 69.106 C 122.015 68.743,121.673 68.307,121.673 68.139 C 121.673 67.725,119.601 67.805,116.654 68.333 M228.441 245.627 L 228.441 277.110 250.798 277.110 L 273.156 277.110 273.156 270.418 L 273.156 263.726 258.099 263.726 L 243.042 263.726 243.042 257.643 L 243.042 251.559 256.426 251.559 L 269.810 251.559 269.810 244.867 L 269.810 238.175 256.426 238.175 L 243.042 238.175 243.042 232.700 L 243.042 227.224 257.338 227.224 L 271.635 227.224 271.635 220.684 L 271.635 214.144 250.038 214.144 L 228.441 214.144 228.441 245.627 M278.327 214.604 C 278.327 214.856,278.601 215.297,278.935 215.584 C 279.270 215.870,279.544 216.284,279.544 216.503 C 279.544 216.722,279.749 216.980,280.000 217.076 C 280.251 217.173,280.456 217.425,280.456 217.638 C 280.456 217.850,280.660 218.194,280.909 218.400 C 281.158 218.607,281.287 218.898,281.195 219.046 C 281.104 219.194,281.177 219.316,281.358 219.316 C 281.540 219.316,281.820 219.661,281.980 220.084 C 282.141 220.506,282.480 220.932,282.733 221.029 C 282.987 221.126,283.194 221.380,283.194 221.592 C 283.194 221.805,283.403 222.152,283.658 222.364 C 283.913 222.575,284.061 222.809,283.987 222.882 C 283.913 222.956,284.081 223.269,284.360 223.578 C 285.340 224.662,285.627 225.072,285.627 225.384 C 285.627 225.557,285.901 225.869,286.236 226.078 C 286.570 226.287,286.844 226.563,286.844 226.692 C 286.844 226.821,287.700 228.163,288.745 229.675 C 289.791 231.187,290.805 232.710,290.999 233.059 C 291.193 233.409,291.467 233.779,291.608 233.881 C 291.749 233.984,292.069 234.475,292.320 234.972 C 292.739 235.802,293.080 236.251,294.311 237.592 C 294.554 237.857,294.753 238.186,294.753 238.324 C 294.753 238.461,295.071 238.997,295.460 239.515 C 295.848 240.033,296.255 240.696,296.363 240.989 C 296.471 241.281,296.683 241.521,296.836 241.521 C 296.988 241.521,297.283 241.932,297.490 242.433 C 297.698 242.935,297.989 243.346,298.136 243.346 C 298.283 243.346,298.403 243.688,298.403 244.106 C 298.403 244.525,298.268 244.867,298.103 244.867 C 297.938 244.867,297.617 245.312,297.390 245.856 C 297.162 246.399,296.750 247.032,296.473 247.262 C 296.196 247.491,295.970 247.868,295.970 248.098 C 295.970 248.329,295.864 248.517,295.735 248.517 C 295.605 248.517,295.230 249.030,294.901 249.658 C 294.572 250.285,294.130 250.908,293.919 251.042 C 293.709 251.176,293.536 251.430,293.536 251.606 C 293.536 251.783,293.194 252.334,292.776 252.831 C 292.357 253.328,292.015 253.938,292.015 254.186 C 292.015 254.434,291.894 254.562,291.746 254.470 C 291.598 254.379,291.308 254.713,291.101 255.213 C 290.894 255.713,290.604 256.122,290.457 256.122 C 290.310 256.122,290.190 256.262,290.190 256.433 C 290.190 256.770,288.390 259.588,287.620 260.456 C 287.361 260.749,287.148 261.099,287.148 261.234 C 287.148 261.368,286.840 261.903,286.464 262.422 C 286.087 262.941,285.574 263.674,285.323 264.052 C 285.072 264.430,284.639 264.979,284.360 265.272 C 284.081 265.565,283.913 265.865,283.987 265.939 C 284.061 266.013,283.913 266.246,283.658 266.458 C 283.403 266.669,283.194 267.020,283.194 267.236 C 283.194 267.453,283.091 267.676,282.966 267.731 C 282.643 267.875,280.760 270.682,280.760 271.020 C 280.760 271.174,280.589 271.410,280.380 271.544 C 280.170 271.678,279.794 272.198,279.544 272.700 C 279.293 273.202,278.917 273.722,278.708 273.855 C 278.498 273.989,278.327 274.276,278.327 274.493 C 278.327 274.709,278.053 275.134,277.719 275.437 C 275.970 277.020,276.394 277.110,285.600 277.110 L 294.089 277.110 295.410 274.798 C 296.136 273.526,297.033 271.986,297.402 271.376 C 297.772 270.766,298.303 269.862,298.583 269.368 C 298.862 268.875,299.278 268.283,299.507 268.054 C 299.736 267.825,299.924 267.451,299.924 267.224 C 299.924 266.997,300.110 266.625,300.337 266.398 C 300.565 266.171,301.048 265.374,301.412 264.627 C 302.522 262.348,302.986 261.597,303.287 261.597 C 303.445 261.597,303.574 261.448,303.574 261.266 C 303.574 261.084,304.087 260.048,304.715 258.964 C 305.342 257.880,306.047 256.626,306.282 256.177 C 306.516 255.729,306.877 255.260,307.084 255.137 C 307.291 255.014,307.551 254.552,307.662 254.112 C 308.024 252.669,308.625 252.359,309.054 253.395 C 309.259 253.891,309.518 254.297,309.628 254.297 C 309.738 254.297,309.994 254.673,310.197 255.133 C 310.399 255.593,310.904 256.517,311.317 257.186 C 311.731 257.856,312.282 258.848,312.541 259.392 C 312.800 259.935,313.147 260.380,313.312 260.380 C 313.477 260.380,313.612 260.507,313.612 260.662 C 313.612 260.817,314.297 262.059,315.133 263.422 C 315.970 264.785,316.654 266.027,316.654 266.182 C 316.654 266.337,316.799 266.464,316.976 266.464 C 317.153 266.464,317.214 266.601,317.110 266.768 C 317.007 266.935,317.045 267.072,317.196 267.072 C 317.466 267.072,318.080 268.181,318.106 268.718 C 318.114 268.870,318.338 269.117,318.604 269.265 C 318.870 269.414,319.087 269.693,319.087 269.885 C 319.087 270.239,320.446 272.367,321.141 273.102 C 321.350 273.323,321.521 273.703,321.521 273.948 C 321.521 274.192,321.714 274.466,321.950 274.556 C 322.186 274.647,322.470 275.087,322.583 275.534 C 322.986 277.141,322.795 277.110,332.324 277.110 C 339.780 277.110,341.255 277.039,341.395 276.674 C 341.487 276.434,341.465 276.194,341.345 276.141 C 341.225 276.089,340.684 275.361,340.143 274.525 C 339.602 273.688,338.989 272.749,338.781 272.437 C 338.390 271.851,336.939 269.902,336.471 269.334 C 336.324 269.157,336.028 268.678,335.813 268.270 C 335.598 267.862,335.325 267.460,335.206 267.376 C 335.087 267.293,334.751 266.758,334.459 266.188 C 334.167 265.618,333.669 264.874,333.352 264.534 C 333.035 264.194,332.776 263.736,332.776 263.517 C 332.776 263.297,332.635 263.118,332.464 263.118 C 332.293 263.118,332.022 262.776,331.863 262.357 C 331.704 261.939,331.450 261.597,331.299 261.597 C 331.148 261.597,330.854 261.186,330.646 260.684 C 330.438 260.183,330.165 259.772,330.038 259.772 C 329.911 259.772,329.638 259.361,329.430 258.859 C 329.222 258.357,328.935 257.947,328.792 257.947 C 328.649 257.947,328.306 257.509,328.029 256.973 C 327.752 256.438,327.338 255.812,327.109 255.582 C 326.880 255.353,326.692 254.977,326.692 254.746 C 326.692 254.516,326.516 254.217,326.301 254.084 C 326.086 253.950,325.400 253.087,324.778 252.167 C 322.899 249.392,322.595 248.978,322.357 248.872 C 322.232 248.816,322.129 248.602,322.129 248.397 C 322.129 248.192,321.870 247.745,321.553 247.405 C 321.236 247.065,320.740 246.327,320.449 245.766 C 320.159 245.204,319.746 244.569,319.531 244.355 C 319.118 243.941,319.272 242.738,319.739 242.738 C 319.891 242.738,320.145 242.395,320.304 241.977 C 320.463 241.559,320.735 241.217,320.907 241.217 C 321.080 241.217,321.437 240.680,321.699 240.023 C 321.962 239.367,322.371 238.756,322.609 238.664 C 322.847 238.573,323.042 238.348,323.042 238.164 C 323.042 237.980,323.384 237.381,323.802 236.833 C 324.221 236.285,324.563 235.693,324.563 235.517 C 324.563 235.342,324.768 235.119,325.019 235.023 C 325.270 234.927,325.475 234.643,325.475 234.393 C 325.475 234.143,325.749 233.791,326.084 233.612 C 326.418 233.433,326.692 233.097,326.692 232.864 C 326.692 232.632,327.034 232.035,327.452 231.538 C 327.871 231.041,328.213 230.479,328.213 230.289 C 328.213 230.099,328.395 229.873,328.617 229.788 C 328.840 229.702,329.208 229.159,329.435 228.580 C 329.662 228.002,329.962 227.529,330.102 227.529 C 330.243 227.529,330.487 227.186,330.646 226.768 C 330.805 226.350,331.079 226.008,331.255 226.008 C 331.430 226.008,331.713 225.700,331.882 225.323 C 332.327 224.335,333.369 222.696,334.677 220.928 C 335.304 220.080,335.817 219.279,335.817 219.148 C 335.817 219.017,336.016 218.694,336.260 218.429 C 337.640 216.924,337.893 216.584,338.279 215.711 C 338.513 215.184,338.807 214.753,338.934 214.753 C 339.060 214.753,339.163 214.616,339.163 214.449 C 339.163 213.765,321.485 214.066,321.305 214.753 C 321.217 215.087,321.027 215.361,320.881 215.361 C 320.736 215.361,320.412 215.806,320.162 216.350 C 319.912 216.894,319.538 217.612,319.329 217.947 C 317.680 220.594,316.488 222.614,315.110 225.095 C 314.228 226.684,313.427 228.053,313.331 228.137 C 313.092 228.345,312.201 229.903,311.636 231.103 C 311.380 231.646,311.063 232.091,310.932 232.091 C 310.800 232.091,310.509 232.600,310.284 233.221 C 309.715 234.794,309.152 235.326,308.898 234.527 C 308.792 234.193,308.534 233.748,308.326 233.538 C 307.875 233.085,305.939 229.952,305.176 228.441 C 304.881 227.856,304.527 227.328,304.391 227.268 C 304.255 227.209,304.012 226.867,303.853 226.508 C 303.693 226.149,303.159 225.240,302.667 224.487 C 302.175 223.734,301.556 222.644,301.292 222.064 C 301.029 221.484,300.709 220.937,300.581 220.847 C 300.231 220.601,298.403 217.525,298.403 217.182 C 298.403 217.017,298.300 216.882,298.174 216.882 C 298.049 216.882,297.619 216.266,297.220 215.513 L 296.493 214.144 287.410 214.144 C 279.513 214.144,278.327 214.204,278.327 214.604 M347.072 245.627 L 347.072 277.110 354.221 277.110 L 361.369 277.110 361.369 264.639 L 361.369 252.167 364.343 252.167 C 367.661 252.167,367.969 252.327,368.656 254.409 C 368.857 255.017,369.147 255.513,369.301 255.513 C 369.455 255.513,369.582 255.633,369.582 255.779 C 369.582 256.158,370.721 258.543,371.417 259.620 C 371.741 260.122,372.145 260.875,372.315 261.293 C 372.484 261.711,372.752 262.259,372.910 262.510 C 373.068 262.760,373.699 263.992,374.311 265.247 C 374.923 266.502,375.593 267.734,375.799 267.985 C 376.005 268.236,376.359 268.920,376.587 269.506 C 376.814 270.091,377.076 270.639,377.169 270.722 C 377.433 270.959,379.427 275.118,379.340 275.251 C 379.298 275.316,379.378 275.453,379.518 275.555 C 379.658 275.658,379.924 276.015,380.109 276.350 C 380.649 277.324,397.871 277.459,397.871 276.489 C 397.871 276.142,397.757 275.928,397.619 276.013 C 397.480 276.099,396.844 275.154,396.206 273.913 C 395.567 272.672,394.962 271.617,394.861 271.570 C 394.641 271.466,393.803 270.039,393.157 268.669 C 392.901 268.125,392.584 267.681,392.452 267.681 C 392.321 267.681,392.040 267.202,391.828 266.616 C 391.617 266.030,391.336 265.551,391.205 265.551 C 391.074 265.551,390.712 264.935,390.402 264.183 C 390.091 263.430,389.728 262.814,389.595 262.814 C 389.462 262.814,389.354 262.669,389.354 262.493 C 389.354 262.316,388.806 261.366,388.137 260.380 C 387.468 259.395,386.920 258.522,386.920 258.440 C 386.920 258.174,384.949 255.060,384.715 254.956 C 384.589 254.900,384.487 254.745,384.487 254.612 C 384.487 254.479,384.008 253.575,383.422 252.602 C 382.106 250.418,382.105 250.460,383.530 250.232 C 384.934 250.008,388.137 248.588,388.137 248.191 C 388.137 248.036,388.309 247.909,388.519 247.909 C 388.841 247.909,390.827 245.937,392.362 244.093 C 393.126 243.175,394.224 240.783,394.415 239.620 C 394.518 238.992,394.699 238.479,394.817 238.479 C 395.075 238.479,395.067 238.551,395.310 234.373 C 395.426 232.385,395.374 230.409,395.184 229.506 C 394.540 226.456,393.942 224.386,393.653 224.207 C 393.490 224.107,393.259 223.638,393.141 223.166 C 393.022 222.694,392.738 222.236,392.508 222.148 C 392.279 222.060,392.091 221.851,392.091 221.684 C 392.091 221.247,389.357 218.635,388.365 218.123 C 387.905 217.886,387.529 217.589,387.529 217.463 C 387.529 217.337,387.049 217.075,386.464 216.882 C 385.878 216.689,385.399 216.426,385.399 216.299 C 385.399 216.171,384.612 215.892,383.650 215.680 C 382.688 215.467,381.764 215.190,381.597 215.063 C 380.694 214.378,375.654 214.144,361.813 214.144 L 347.072 214.144 347.072 245.627 M373.840 226.553 C 373.840 226.686,374.599 226.954,375.526 227.148 C 377.169 227.493,377.728 227.905,379.620 230.164 C 380.213 230.873,380.277 235.776,379.696 235.970 C 379.487 236.039,379.316 236.270,379.316 236.483 C 379.316 238.496,374.844 239.696,367.344 239.696 L 361.369 239.696 361.369 233.004 L 361.369 226.312 367.605 226.312 C 371.034 226.312,373.840 226.420,373.840 226.553 " stroke="none" fill="#cb2c3c" fill-rule="evenodd"></path><path id="path2" d="M131.432 81.720 C 124.531 86.554,131.917 97.553,144.163 100.679 C 147.639 101.567,148.454 101.305,146.936 99.788 C 146.611 99.462,146.128 98.778,145.864 98.267 C 145.600 97.756,145.283 97.338,145.160 97.338 C 145.037 97.338,144.206 96.380,143.313 95.209 C 142.420 94.038,141.566 93.080,141.415 93.080 C 141.264 93.080,141.141 92.927,141.141 92.740 C 141.141 92.553,140.725 91.903,140.218 91.295 C 138.715 89.496,138.625 89.385,136.921 87.180 C 135.011 84.709,134.846 84.504,133.840 83.360 C 133.422 82.884,132.866 82.211,132.604 81.864 C 132.159 81.273,132.084 81.263,131.432 81.720 M272.091 85.988 C 271.589 86.052,270.905 86.230,270.570 86.383 C 270.236 86.536,268.662 86.820,267.072 87.014 C 265.483 87.208,264.053 87.445,263.894 87.541 C 263.735 87.637,263.324 87.746,262.981 87.783 C 260.575 88.045,255.558 88.885,255.057 89.110 C 254.722 89.261,253.080 89.549,251.407 89.752 C 249.734 89.954,248.228 90.220,248.061 90.343 C 247.894 90.467,246.388 90.736,244.715 90.941 C 243.042 91.146,241.536 91.418,241.369 91.545 C 241.202 91.672,239.593 91.953,237.795 92.169 C 235.996 92.385,234.525 92.678,234.525 92.821 C 234.525 92.963,234.173 93.080,233.744 93.080 C 232.481 93.080,226.214 94.005,225.551 94.289 C 225.217 94.433,223.643 94.706,222.053 94.896 C 220.464 95.086,218.890 95.355,218.555 95.495 C 217.923 95.759,214.161 96.412,208.669 97.210 C 206.913 97.465,205.202 97.796,204.867 97.946 C 204.532 98.096,202.958 98.381,201.369 98.580 C 199.779 98.778,198.349 99.059,198.190 99.204 C 198.031 99.349,197.482 99.468,196.971 99.468 C 196.378 99.468,195.906 99.683,195.670 100.060 C 194.672 101.658,184.335 107.567,177.795 110.278 C 173.028 112.254,165.421 114.927,161.521 115.996 C 160.601 116.248,158.616 116.796,157.110 117.212 C 152.516 118.484,144.714 120.220,138.251 121.409 C 134.007 122.190,134.172 122.117,134.927 122.881 C 135.250 123.207,135.787 123.839,136.122 124.284 C 136.456 124.730,137.145 125.591,137.651 126.197 C 138.158 126.804,139.108 127.985,139.762 128.821 C 140.417 129.658,141.135 130.548,141.358 130.798 C 141.581 131.049,142.167 131.802,142.662 132.471 C 143.156 133.141,143.749 133.894,143.980 134.144 C 145.212 135.484,149.658 141.211,149.658 141.459 C 149.658 141.619,149.767 141.749,149.901 141.749 C 150.034 141.749,151.071 142.916,152.205 144.342 L 154.267 146.935 155.841 146.735 C 156.706 146.625,157.551 146.435,157.719 146.312 C 157.886 146.189,159.563 145.909,161.445 145.690 C 163.327 145.471,164.867 145.201,164.867 145.091 C 164.867 144.980,166.270 144.714,167.985 144.499 C 169.700 144.284,171.240 144.009,171.407 143.888 C 171.574 143.766,173.148 143.491,174.905 143.276 C 176.662 143.060,178.167 142.791,178.251 142.677 C 178.335 142.563,180.219 142.235,182.438 141.949 C 184.657 141.662,186.778 141.302,187.152 141.148 C 187.527 140.993,188.928 140.723,190.266 140.548 C 192.683 140.231,193.916 140.019,193.916 139.918 C 193.916 139.853,199.874 138.855,203.954 138.237 C 205.627 137.984,207.270 137.649,207.605 137.494 C 207.939 137.339,209.582 137.052,211.255 136.856 C 212.928 136.660,214.433 136.392,214.601 136.261 C 214.768 136.130,216.342 135.851,218.099 135.641 C 219.856 135.432,221.361 135.169,221.445 135.057 C 221.594 134.858,228.685 133.778,229.734 133.794 C 230.027 133.799,230.266 133.700,230.266 133.575 C 230.266 133.449,231.738 133.169,233.536 132.952 C 235.335 132.734,236.943 132.451,237.110 132.323 C 237.278 132.194,238.852 131.917,240.608 131.708 C 242.365 131.498,243.871 131.234,243.954 131.121 C 244.038 131.009,245.612 130.688,247.452 130.408 C 252.717 129.608,257.449 128.789,257.947 128.592 C 258.198 128.493,259.909 128.199,261.749 127.938 C 263.589 127.678,265.437 127.381,265.856 127.279 C 266.274 127.176,267.985 126.897,269.658 126.657 C 271.331 126.418,272.973 126.099,273.308 125.948 C 273.643 125.797,275.285 125.506,276.958 125.301 C 278.631 125.097,280.068 124.835,280.152 124.720 C 280.236 124.605,281.741 124.340,283.498 124.130 C 285.255 123.921,286.829 123.641,286.996 123.509 C 287.163 123.376,288.738 123.096,290.494 122.886 C 292.251 122.676,293.757 122.411,293.840 122.296 C 293.924 122.181,295.361 121.914,297.034 121.701 C 301.453 121.140,301.749 121.061,301.749 120.455 C 301.749 119.904,299.135 116.324,296.882 113.789 C 296.464 113.319,295.848 112.550,295.513 112.081 C 294.796 111.077,292.345 107.987,291.703 107.278 C 291.456 107.006,291.015 106.472,290.721 106.091 C 288.031 102.601,285.817 99.865,285.456 99.586 C 285.216 99.400,285.019 99.151,285.019 99.031 C 285.019 98.844,283.723 97.230,280.888 93.885 C 280.483 93.408,280.152 92.959,280.152 92.887 C 280.152 92.769,277.998 90.141,275.894 87.694 C 275.433 87.157,274.975 86.507,274.876 86.249 C 274.699 85.787,274.094 85.731,272.091 85.988 M118.815 110.672 C 118.729 110.811,117.249 111.102,115.527 111.318 C 113.805 111.534,112.259 111.796,112.091 111.901 C 111.801 112.082,110.150 112.371,101.663 113.725 C 97.230 114.433,94.905 114.996,94.905 115.363 C 94.905 115.655,97.087 118.502,98.517 120.076 C 99.011 120.620,99.343 121.065,99.254 121.065 C 99.165 121.065,99.554 121.590,100.117 122.232 C 100.680 122.873,101.620 124.002,102.205 124.740 C 102.791 125.479,103.578 126.397,103.954 126.781 C 104.331 127.166,104.639 127.586,104.639 127.716 C 104.639 127.845,105.015 128.377,105.475 128.898 C 106.574 130.142,106.914 130.558,108.893 133.081 C 109.811 134.252,110.701 135.364,110.871 135.552 C 111.040 135.741,111.490 136.289,111.871 136.769 C 116.031 142.021,116.898 143.108,117.208 143.458 C 117.405 143.681,117.805 144.175,118.096 144.555 C 119.202 146.002,123.276 151.033,123.459 151.179 C 123.564 151.262,123.787 151.549,123.954 151.815 C 124.656 152.933,128.501 157.567,128.727 157.567 C 128.863 157.567,128.973 157.720,128.973 157.907 C 128.973 158.094,129.392 158.744,129.903 159.351 C 131.717 161.508,132.067 161.937,133.312 163.531 C 134.089 164.526,134.694 165.047,134.890 164.892 C 135.066 164.753,135.894 164.544,136.730 164.427 C 139.493 164.040,150.524 161.696,154.525 160.645 C 166.411 157.524,173.438 155.100,181.749 151.252 C 186.292 149.148,193.394 145.028,193.907 144.198 C 194.104 143.879,193.291 143.540,193.009 143.823 C 192.793 144.040,188.528 144.795,183.118 145.573 C 181.361 145.825,179.718 146.144,179.466 146.280 C 179.214 146.417,177.571 146.709,175.816 146.929 C 174.060 147.149,172.555 147.417,172.471 147.524 C 172.388 147.631,170.951 147.892,169.278 148.103 C 167.605 148.314,165.962 148.604,165.627 148.747 C 165.293 148.891,163.396 149.232,161.412 149.505 C 159.428 149.778,157.512 150.113,157.153 150.249 C 156.795 150.384,155.681 150.588,154.677 150.702 L 152.852 150.909 151.641 149.371 C 150.975 148.525,150.325 147.833,150.196 147.833 C 150.067 147.833,149.956 147.662,149.948 147.452 C 149.910 146.389,147.074 143.959,145.625 143.747 C 133.800 142.022,124.507 130.142,130.991 125.041 C 131.707 124.479,131.751 124.351,131.344 124.024 C 131.088 123.818,130.157 122.705,129.274 121.550 C 127.512 119.242,126.888 118.465,126.307 117.853 C 126.095 117.630,125.419 116.790,124.806 115.986 C 124.193 115.182,123.306 114.114,122.835 113.612 C 122.365 113.110,121.979 112.602,121.979 112.482 C 121.972 111.504,119.259 109.952,118.815 110.672 " stroke="none" fill="#8c1424" fill-rule="evenodd"></path><path id="path3" d="M131.005 125.031 C 124.461 130.178,134.022 142.268,145.816 143.760 C 147.556 143.980,147.578 144.145,145.573 141.963 C 145.143 141.496,144.791 140.997,144.791 140.855 C 144.791 140.712,144.451 140.274,144.036 139.880 C 143.620 139.486,143.278 139.041,143.275 138.891 C 143.272 138.742,142.993 138.331,142.655 137.979 C 141.321 136.591,139.970 135.044,139.873 134.795 C 139.710 134.373,138.311 132.592,137.567 131.859 C 137.190 131.488,136.882 131.083,136.882 130.959 C 136.882 130.739,136.531 130.319,134.601 128.235 C 134.099 127.692,133.494 126.884,133.257 126.438 C 133.019 125.992,132.707 125.627,132.562 125.627 C 132.418 125.627,132.196 125.346,132.068 125.002 L 131.837 124.376 131.005 125.031 M273.384 129.499 C 272.757 129.565,272.243 129.723,272.243 129.851 C 272.243 129.978,270.738 130.262,268.897 130.481 C 267.057 130.700,265.551 130.973,265.551 131.088 C 265.551 131.203,264.082 131.468,262.287 131.677 C 260.491 131.886,258.951 132.164,258.865 132.295 C 258.778 132.426,257.167 132.709,255.285 132.923 C 253.403 133.138,251.863 133.406,251.863 133.519 C 251.863 133.633,250.392 133.905,248.593 134.125 C 246.795 134.344,245.027 134.635,244.666 134.772 C 244.304 134.909,242.251 135.261,240.103 135.554 C 237.955 135.846,236.129 136.173,236.046 136.280 C 235.962 136.386,234.456 136.650,232.700 136.867 C 230.943 137.083,229.369 137.366,229.202 137.494 C 229.034 137.623,227.426 137.905,225.627 138.123 C 223.829 138.340,222.357 138.605,222.357 138.711 C 222.357 138.818,220.852 139.090,219.011 139.316 C 217.171 139.541,215.665 139.817,215.665 139.928 C 215.665 140.039,214.091 140.311,212.167 140.532 C 210.243 140.754,208.669 141.028,208.669 141.141 C 208.669 141.254,206.719 141.592,204.335 141.892 C 201.951 142.192,199.863 142.543,199.696 142.672 C 199.529 142.801,198.045 143.076,196.398 143.282 C 194.752 143.488,193.557 143.750,193.744 143.866 C 194.293 144.205,192.677 145.374,187.968 148.043 C 179.112 153.062,169.244 156.780,154.525 160.645 C 150.313 161.751,139.272 164.090,136.628 164.436 C 134.350 164.734,134.277 165.197,136.198 167.136 C 136.574 167.516,136.882 167.951,136.882 168.104 C 136.882 168.257,137.122 168.597,137.414 168.861 C 138.106 169.482,139.921 171.711,140.638 172.820 C 140.947 173.297,141.324 173.688,141.475 173.688 C 141.626 173.688,141.749 173.855,141.749 174.058 C 141.749 174.261,142.021 174.706,142.353 175.046 C 143.504 176.226,144.791 177.779,144.791 177.988 C 144.791 178.104,145.236 178.689,145.779 179.289 C 146.323 179.888,147.110 180.804,147.529 181.323 C 147.947 181.843,148.494 182.502,148.745 182.789 C 149.143 183.243,150.696 185.198,151.627 186.417 C 151.799 186.642,152.213 187.137,152.548 187.517 C 152.882 187.897,153.302 188.457,153.480 188.760 C 154.016 189.672,154.752 190.004,155.374 189.616 C 155.674 189.428,157.386 189.095,159.177 188.877 C 160.968 188.658,162.433 188.391,162.433 188.285 C 162.433 188.178,163.939 187.906,165.779 187.681 C 167.620 187.455,169.125 187.179,169.125 187.069 C 169.125 186.958,170.700 186.685,172.624 186.464 C 174.548 186.242,176.122 185.970,176.122 185.859 C 176.122 185.748,177.627 185.473,179.468 185.247 C 181.308 185.021,182.814 184.750,182.814 184.644 C 182.814 184.537,184.285 184.266,186.084 184.040 C 187.882 183.815,189.422 183.539,189.506 183.427 C 189.589 183.315,191.643 182.976,194.068 182.674 C 196.494 182.372,198.616 182.018,198.783 181.888 C 198.951 181.757,200.525 181.478,202.281 181.269 C 204.038 181.059,205.544 180.786,205.629 180.661 C 205.714 180.535,207.219 180.262,208.975 180.052 C 210.731 179.843,212.236 179.581,212.319 179.470 C 212.403 179.359,213.909 179.091,215.665 178.874 C 217.422 178.658,218.996 178.377,219.163 178.251 C 219.331 178.125,220.905 177.844,222.662 177.627 C 224.418 177.411,225.924 177.145,226.008 177.036 C 226.091 176.927,228.076 176.588,230.418 176.283 C 232.760 175.979,234.814 175.627,234.981 175.503 C 235.148 175.378,236.757 175.098,238.555 174.881 C 240.354 174.664,241.825 174.395,241.825 174.284 C 241.825 174.172,243.297 173.909,245.095 173.698 C 246.894 173.488,248.505 173.203,248.676 173.066 C 248.847 172.929,250.455 172.646,252.250 172.437 C 254.045 172.228,255.513 171.966,255.513 171.853 C 255.513 171.741,256.985 171.470,258.783 171.251 C 260.582 171.032,262.122 170.758,262.205 170.641 C 262.289 170.525,264.274 170.191,266.616 169.899 C 268.958 169.607,270.943 169.268,271.027 169.145 C 271.110 169.022,272.616 168.751,274.373 168.541 C 276.129 168.332,277.703 168.055,277.871 167.926 C 278.038 167.797,279.646 167.515,281.445 167.299 C 283.243 167.083,284.715 166.814,284.715 166.702 C 284.715 166.589,286.184 166.327,287.980 166.118 C 289.775 165.909,291.315 165.631,291.402 165.500 C 291.488 165.368,293.099 165.086,294.981 164.871 C 296.863 164.657,298.403 164.380,298.403 164.257 C 298.403 164.133,299.090 163.966,299.931 163.885 C 302.090 163.677,302.363 162.647,300.672 161.080 C 300.261 160.699,299.924 160.238,299.924 160.056 C 299.924 159.875,299.752 159.617,299.542 159.483 C 299.332 159.349,298.801 158.760,298.362 158.175 C 297.520 157.053,296.361 155.699,295.355 154.666 C 295.024 154.326,294.753 153.888,294.753 153.693 C 294.753 153.498,294.582 153.229,294.373 153.095 C 294.163 152.961,293.515 152.236,292.932 151.483 C 291.241 149.300,290.982 148.990,290.418 148.482 C 290.125 148.218,289.886 147.875,289.886 147.721 C 289.886 147.567,289.600 147.152,289.250 146.800 C 288.900 146.448,287.961 145.318,287.162 144.290 C 285.234 141.807,284.985 141.506,284.183 140.697 C 283.806 140.317,283.498 139.881,283.498 139.729 C 283.498 139.576,283.259 139.235,282.966 138.971 C 282.673 138.708,281.684 137.514,280.767 136.318 C 279.850 135.123,278.995 134.144,278.866 134.144 C 278.737 134.144,278.631 133.947,278.631 133.705 C 278.631 133.464,278.379 133.088,278.071 132.869 C 277.763 132.650,277.331 132.129,277.110 131.711 C 276.890 131.293,276.457 130.772,276.149 130.553 C 275.841 130.334,275.589 129.958,275.589 129.717 C 275.589 129.475,275.350 129.301,275.057 129.329 C 274.764 129.357,274.011 129.434,273.384 129.499 M30.114 212.642 C 29.696 212.784,28.293 213.062,26.996 213.261 C 25.700 213.460,24.639 213.724,24.639 213.849 C 24.639 213.974,24.193 214.160,23.647 214.263 C 22.382 214.500,17.264 217.100,16.943 217.668 C 16.809 217.905,16.561 218.099,16.390 218.099 C 15.682 218.099,9.762 223.452,9.721 224.130 C 9.715 224.243,9.304 224.809,8.809 225.388 C 8.314 225.967,7.909 226.603,7.909 226.800 C 7.909 226.998,7.716 227.233,7.481 227.323 C 7.246 227.414,6.961 227.907,6.849 228.421 C 6.736 228.934,6.523 229.354,6.376 229.354 C 6.229 229.354,5.938 229.935,5.730 230.646 C 5.523 231.357,5.257 232.008,5.140 232.091 C 4.965 232.216,4.570 233.387,3.752 236.198 C 2.845 239.318,2.563 250.325,3.320 253.080 C 3.526 253.833,3.694 254.688,3.692 254.981 C 3.690 255.274,3.801 255.513,3.939 255.513 C 4.078 255.513,4.287 256.027,4.404 256.654 C 4.521 257.281,4.947 258.517,5.350 259.401 C 5.754 260.284,6.084 261.139,6.084 261.302 C 6.084 261.464,6.199 261.597,6.339 261.597 C 6.480 261.597,6.775 262.144,6.996 262.814 C 7.217 263.483,7.517 264.030,7.663 264.030 C 7.809 264.030,8.014 264.270,8.120 264.563 C 8.225 264.856,8.493 265.300,8.714 265.551 C 8.935 265.802,9.603 266.555,10.199 267.224 C 10.795 267.894,11.512 268.817,11.791 269.278 C 12.070 269.738,12.406 270.114,12.537 270.114 C 12.668 270.114,13.018 270.354,13.313 270.646 C 14.200 271.525,16.237 273.041,16.806 273.248 C 17.099 273.354,17.338 273.560,17.338 273.706 C 17.338 273.852,17.886 274.152,18.555 274.373 C 19.224 274.593,19.772 274.867,19.772 274.981 C 19.772 275.095,20.319 275.368,20.989 275.589 C 21.658 275.810,22.205 276.087,22.205 276.205 C 22.205 276.323,23.027 276.593,24.030 276.806 C 25.034 277.019,25.856 277.295,25.856 277.419 C 25.856 277.720,30.022 278.327,32.086 278.327 C 32.989 278.327,33.813 278.464,33.916 278.631 C 34.020 278.798,34.773 278.935,35.589 278.935 C 36.406 278.935,37.159 278.798,37.262 278.631 C 37.366 278.464,38.190 278.327,39.093 278.327 C 41.157 278.327,45.323 277.720,45.323 277.419 C 45.323 277.295,46.144 277.019,47.148 276.806 C 48.152 276.593,48.973 276.323,48.973 276.205 C 48.973 276.087,49.521 275.810,50.190 275.589 C 50.859 275.368,51.407 275.094,51.407 274.978 C 51.407 274.863,51.920 274.540,52.548 274.260 C 54.454 273.409,55.392 272.821,55.565 272.369 C 55.656 272.133,55.891 271.939,56.088 271.939 C 56.452 271.939,61.594 266.742,62.279 265.681 C 62.487 265.359,63.058 264.479,63.548 263.726 C 64.039 262.973,64.533 261.981,64.648 261.521 C 64.763 261.061,64.977 260.684,65.124 260.684 C 65.270 260.684,65.546 260.068,65.735 259.316 C 65.925 258.563,66.182 257.947,66.306 257.947 C 66.431 257.947,66.712 257.091,66.930 256.046 C 67.148 255.000,67.429 254.075,67.555 253.990 C 68.492 253.354,68.482 237.852,67.543 237.272 C 67.390 237.177,67.168 236.374,67.050 235.487 C 66.933 234.601,66.676 233.714,66.481 233.516 C 66.285 233.318,65.937 232.471,65.708 231.635 C 65.480 230.798,65.203 230.046,65.093 229.962 C 64.983 229.878,64.381 228.853,63.753 227.683 C 63.126 226.514,62.520 225.487,62.407 225.402 C 62.294 225.317,61.844 224.768,61.406 224.183 C 59.802 222.038,55.516 218.099,54.786 218.099 C 54.617 218.099,54.369 217.920,54.236 217.701 C 54.102 217.482,53.548 217.123,53.004 216.903 C 52.460 216.684,52.015 216.389,52.015 216.249 C 52.015 216.109,51.433 215.822,50.722 215.613 C 50.011 215.403,49.265 215.072,49.064 214.877 C 48.863 214.682,48.179 214.424,47.544 214.305 C 46.909 214.186,46.316 213.971,46.227 213.826 C 46.138 213.682,45.043 213.411,43.793 213.224 C 42.543 213.037,41.283 212.757,40.993 212.602 C 40.340 212.253,31.161 212.287,30.114 212.642 M39.848 221.410 C 39.848 221.559,40.498 221.777,41.293 221.895 C 42.087 222.013,43.460 222.439,44.344 222.842 C 45.227 223.245,46.082 223.574,46.245 223.574 C 46.407 223.574,46.540 223.696,46.540 223.845 C 46.540 223.994,47.070 224.328,47.717 224.587 C 48.365 224.847,48.976 225.272,49.076 225.533 C 49.177 225.794,49.418 226.008,49.613 226.008 C 49.991 226.008,52.928 228.866,52.928 229.235 C 52.928 229.356,53.127 229.671,53.370 229.936 C 53.613 230.201,54.076 230.710,54.399 231.067 C 54.722 231.425,55.150 232.212,55.350 232.817 C 55.549 233.421,55.817 233.916,55.945 233.916 C 56.073 233.916,56.350 234.498,56.561 235.209 C 56.772 235.920,57.056 236.639,57.192 236.806 C 58.632 238.582,58.654 253.040,57.217 253.983 C 57.082 254.072,56.800 254.863,56.592 255.741 C 56.383 256.620,56.106 257.338,55.976 257.338 C 55.846 257.338,55.569 257.749,55.361 258.251 C 55.153 258.753,54.863 259.163,54.716 259.163 C 54.569 259.163,54.449 259.308,54.449 259.486 C 54.449 260.171,49.930 265.247,49.320 265.247 C 49.146 265.247,48.894 265.425,48.760 265.643 C 48.559 265.971,45.524 267.553,43.042 268.624 C 42.061 269.047,39.787 269.490,38.555 269.498 C 37.928 269.502,37.414 269.643,37.414 269.810 C 37.414 269.979,36.603 270.114,35.589 270.114 C 34.575 270.114,33.764 269.979,33.764 269.810 C 33.764 269.643,33.346 269.506,32.834 269.506 C 31.384 269.506,27.681 268.835,27.681 268.572 C 27.681 268.442,27.167 268.171,26.540 267.970 C 25.913 267.768,25.194 267.438,24.943 267.236 C 24.692 267.034,24.052 266.696,23.520 266.486 C 22.988 266.276,22.479 265.911,22.389 265.676 C 22.298 265.440,22.079 265.247,21.900 265.247 C 21.548 265.247,17.338 261.143,17.338 260.800 C 17.338 260.684,17.016 260.166,16.622 259.648 C 16.228 259.131,15.808 258.399,15.689 258.023 C 15.570 257.646,15.362 257.338,15.228 257.338 C 15.094 257.338,14.811 256.719,14.599 255.962 C 14.387 255.205,14.103 254.517,13.969 254.434 C 13.835 254.352,13.554 253.260,13.343 252.009 C 13.133 250.758,12.851 249.734,12.716 249.734 C 12.582 249.734,12.471 247.817,12.471 245.475 C 12.471 243.133,12.578 241.217,12.707 241.217 C 12.837 241.217,13.107 240.184,13.308 238.921 C 13.509 237.659,13.865 236.433,14.100 236.198 C 14.335 235.964,14.619 235.285,14.730 234.692 C 14.841 234.098,15.038 233.612,15.166 233.612 C 15.295 233.612,15.588 233.133,15.817 232.548 C 16.047 231.962,16.317 231.483,16.417 231.483 C 16.517 231.483,16.859 231.038,17.177 230.494 C 17.882 229.288,21.073 226.008,21.541 226.008 C 21.728 226.008,22.010 225.764,22.170 225.466 C 22.329 225.168,22.950 224.732,23.549 224.496 C 24.148 224.261,24.639 223.968,24.639 223.845 C 24.639 223.722,25.152 223.454,25.779 223.249 C 26.407 223.045,26.993 222.767,27.081 222.632 C 27.170 222.496,28.163 222.211,29.287 221.998 C 30.411 221.785,31.331 221.505,31.331 221.375 C 31.331 221.246,33.247 221.141,35.589 221.141 C 37.932 221.141,39.848 221.262,39.848 221.410 M94.221 233.813 C 93.760 233.892,93.384 234.063,93.384 234.192 C 93.384 234.322,92.631 234.596,91.711 234.802 C 90.791 235.008,90.038 235.290,90.038 235.429 C 90.038 235.568,89.627 235.825,89.125 236.000 C 88.624 236.175,88.213 236.462,88.213 236.638 C 88.213 236.814,88.032 236.958,87.811 236.958 C 87.590 236.958,86.769 237.572,85.986 238.322 L 84.563 239.686 84.563 237.105 L 84.563 234.525 80.304 234.525 L 76.046 234.525 76.046 268.289 L 76.046 302.053 80.304 302.053 L 84.563 302.053 84.563 286.966 L 84.563 271.879 85.982 273.278 C 86.762 274.047,87.583 274.677,87.807 274.677 C 88.030 274.677,88.213 274.821,88.213 274.997 C 88.213 275.173,88.624 275.460,89.125 275.635 C 89.627 275.810,90.038 276.063,90.038 276.197 C 90.038 276.331,90.757 276.612,91.635 276.820 C 92.513 277.028,93.330 277.350,93.449 277.535 C 93.748 277.997,104.879 278.002,105.182 277.540 C 105.302 277.358,106.082 277.040,106.916 276.833 C 107.750 276.626,108.503 276.355,108.589 276.230 C 108.675 276.106,109.361 275.707,110.114 275.345 C 110.867 274.983,111.894 274.352,112.395 273.943 C 114.370 272.332,115.589 271.195,115.589 270.965 C 115.589 270.831,115.829 270.465,116.122 270.150 C 117.117 269.080,117.743 268.139,117.916 267.452 C 118.011 267.076,118.196 266.768,118.326 266.768 C 118.457 266.768,118.807 265.844,119.104 264.715 C 119.401 263.586,119.793 262.469,119.974 262.235 C 120.438 261.634,120.424 249.976,119.959 249.400 C 119.769 249.166,119.517 248.494,119.398 247.909 C 119.166 246.761,117.625 243.279,117.023 242.539 C 116.820 242.289,116.414 241.822,116.122 241.499 C 115.829 241.177,115.589 240.816,115.589 240.697 C 115.589 240.419,112.604 237.567,112.312 237.566 C 112.191 237.566,111.689 237.220,111.197 236.797 C 110.706 236.374,109.987 235.949,109.600 235.852 C 109.214 235.755,108.897 235.567,108.897 235.435 C 108.897 235.302,108.179 235.023,107.300 234.815 C 106.422 234.607,105.608 234.289,105.491 234.108 C 105.275 233.773,95.886 233.528,94.221 233.813 M143.802 233.812 C 143.342 233.892,142.966 234.063,142.966 234.192 C 142.966 234.322,142.213 234.596,141.293 234.802 C 140.373 235.008,139.620 235.293,139.620 235.435 C 139.620 235.578,139.114 235.861,138.496 236.065 C 137.379 236.434,137.067 236.627,135.948 237.643 C 135.625 237.935,135.251 238.175,135.117 238.175 C 134.915 238.175,133.172 240.000,131.328 242.142 C 131.106 242.400,130.743 243.051,130.520 243.587 C 130.298 244.124,130.001 244.563,129.861 244.563 C 129.720 244.563,129.449 245.144,129.258 245.856 C 129.067 246.567,128.787 247.225,128.637 247.319 C 128.487 247.412,128.196 248.542,127.992 249.828 C 127.787 251.115,127.513 252.167,127.384 252.167 C 127.254 252.167,127.148 253.810,127.148 255.817 C 127.148 258.048,127.267 259.468,127.452 259.468 C 127.620 259.468,127.757 259.886,127.757 260.398 C 127.757 261.451,128.364 264.104,128.657 264.335 C 128.764 264.418,129.021 265.068,129.229 265.779 C 129.436 266.490,129.727 267.072,129.874 267.072 C 130.021 267.072,130.234 267.492,130.347 268.005 C 130.459 268.519,130.744 269.012,130.979 269.103 C 131.214 269.193,131.407 269.429,131.407 269.628 C 131.407 270.270,135.594 274.373,136.250 274.373 C 136.441 274.373,136.668 274.558,136.755 274.785 C 136.843 275.013,137.454 275.377,138.115 275.595 C 138.775 275.813,139.316 276.084,139.316 276.198 C 139.316 276.456,141.449 277.110,142.291 277.110 C 142.634 277.110,142.972 277.281,143.042 277.490 C 143.212 278.001,155.134 278.039,155.771 277.530 C 156.006 277.343,156.951 277.015,157.871 276.802 C 158.791 276.588,159.612 276.312,159.696 276.188 C 159.779 276.064,160.327 275.736,160.913 275.460 C 162.810 274.567,163.650 274.041,163.650 273.748 C 163.650 273.589,163.829 273.460,164.048 273.460 C 164.589 273.460,167.465 270.432,167.735 269.578 C 167.897 269.063,167.774 268.738,167.246 268.286 C 165.275 266.599,164.689 266.160,164.408 266.160 C 164.239 266.160,163.930 265.886,163.721 265.551 C 163.512 265.217,163.151 264.943,162.920 264.943 C 162.688 264.943,162.420 264.738,162.323 264.487 C 162.018 263.691,161.480 263.979,159.545 265.972 C 158.508 267.041,157.364 268.008,157.004 268.122 C 156.644 268.236,156.350 268.447,156.350 268.590 C 156.350 268.733,155.837 269.017,155.209 269.222 C 154.582 269.427,153.971 269.745,153.851 269.930 C 153.534 270.420,146.245 270.369,146.080 269.876 C 146.012 269.672,145.746 269.506,145.488 269.506 C 143.724 269.506,138.345 265.269,137.910 263.537 C 137.810 263.139,137.622 262.814,137.491 262.814 C 137.361 262.814,137.161 262.300,137.047 261.673 C 136.934 261.046,136.767 260.224,136.676 259.848 L 136.512 259.163 153.321 259.163 L 170.131 259.163 169.949 254.682 C 169.839 251.966,169.641 250.159,169.447 250.094 C 169.270 250.036,169.125 249.649,169.125 249.235 C 169.125 248.138,168.487 245.779,168.191 245.779 C 168.051 245.779,167.844 245.289,167.732 244.691 C 167.620 244.092,167.348 243.533,167.128 243.448 C 166.909 243.364,166.640 242.889,166.531 242.394 C 166.422 241.898,166.072 241.329,165.752 241.129 C 165.433 240.929,165.171 240.610,165.171 240.420 C 165.171 240.126,164.335 239.318,161.508 236.880 C 161.250 236.658,160.600 236.294,160.063 236.072 C 159.526 235.849,159.087 235.565,159.087 235.440 C 159.087 235.315,158.437 235.033,157.643 234.815 C 156.848 234.596,156.104 234.277,155.989 234.105 C 155.776 233.784,145.405 233.535,143.802 233.812 M193.992 233.815 C 193.532 233.893,193.156 234.055,193.156 234.174 C 193.156 234.294,192.540 234.574,191.787 234.796 C 191.034 235.018,190.418 235.289,190.418 235.397 C 190.418 235.505,190.036 235.762,189.568 235.969 C 188.518 236.434,186.160 238.730,186.160 239.287 C 186.160 239.512,186.023 239.696,185.856 239.696 C 185.677 239.696,185.551 238.631,185.551 237.110 L 185.551 234.525 181.141 234.525 L 176.730 234.525 176.730 255.817 L 176.730 277.110 181.141 277.110 L 185.551 277.110 185.551 264.809 C 185.551 256.936,185.661 252.440,185.856 252.319 C 186.023 252.216,186.160 251.872,186.160 251.556 C 186.160 250.508,186.815 247.906,187.174 247.524 C 187.369 247.317,187.734 246.744,187.985 246.249 C 188.447 245.338,190.027 243.650,190.417 243.650 C 190.534 243.650,190.938 243.383,191.315 243.056 C 191.691 242.729,192.602 242.371,193.338 242.261 C 194.074 242.151,194.677 241.939,194.677 241.791 C 194.677 241.642,195.498 241.521,196.502 241.521 C 197.516 241.521,198.327 241.656,198.327 241.825 C 198.327 241.992,198.663 242.129,199.073 242.129 C 199.831 242.129,201.191 242.636,201.925 243.192 C 203.145 244.115,204.437 245.630,204.611 246.339 C 204.719 246.784,204.944 247.237,205.109 247.345 C 205.742 247.759,205.896 250.916,205.913 263.802 L 205.932 277.110 210.364 277.110 L 214.796 277.110 214.698 261.129 C 214.629 249.697,214.503 245.087,214.258 244.932 C 214.069 244.812,213.817 244.128,213.697 243.411 C 213.241 240.687,210.594 236.984,208.411 236.017 C 207.884 235.784,207.452 235.495,207.452 235.375 C 207.452 235.255,206.871 234.988,206.160 234.780 C 205.449 234.572,204.769 234.259,204.650 234.083 C 204.429 233.759,195.629 233.537,193.992 233.815 M149.658 240.608 C 149.658 240.776,150.145 240.913,150.740 240.913 C 152.091 240.913,154.525 241.509,154.525 241.841 C 154.525 241.977,154.833 242.186,155.209 242.305 C 155.948 242.539,158.783 245.118,158.783 245.556 C 158.783 245.703,158.979 246.019,159.218 246.258 C 159.638 246.678,160.238 249.000,160.372 250.722 C 160.408 251.183,160.544 251.559,160.675 251.559 C 160.806 251.559,160.913 251.696,160.913 251.863 C 160.913 252.061,156.654 252.167,148.745 252.167 C 139.213 252.167,136.578 252.085,136.580 251.787 C 136.592 249.021,140.949 242.433,142.766 242.433 C 143.026 242.433,143.349 242.250,143.483 242.026 C 143.759 241.563,146.114 240.913,147.511 240.913 C 148.023 240.913,148.441 240.776,148.441 240.608 C 148.441 240.441,148.715 240.304,149.049 240.304 C 149.384 240.304,149.658 240.441,149.658 240.608 M100.076 241.769 C 100.076 241.906,100.966 242.195,102.053 242.411 C 103.141 242.627,104.030 242.909,104.030 243.038 C 104.030 243.167,104.456 243.449,104.977 243.664 C 106.194 244.169,108.378 246.322,108.925 247.557 C 109.159 248.085,109.448 248.517,109.568 248.517 C 109.687 248.517,109.955 249.099,110.163 249.810 C 110.371 250.521,110.684 251.200,110.860 251.320 C 111.291 251.613,111.291 260.022,110.860 260.315 C 110.684 260.435,110.371 261.114,110.163 261.825 C 109.955 262.536,109.687 263.118,109.568 263.118 C 109.448 263.118,109.154 263.563,108.914 264.106 C 108.357 265.368,105.999 267.583,104.715 268.051 C 104.171 268.249,103.726 268.504,103.726 268.618 C 103.726 268.881,101.275 269.506,100.246 269.506 C 99.818 269.506,99.468 269.643,99.468 269.810 C 99.468 269.977,98.783 270.114,97.947 270.114 C 97.110 270.114,96.426 270.008,96.426 269.879 C 96.426 269.750,95.506 269.470,94.382 269.257 C 93.258 269.043,92.265 268.772,92.176 268.655 C 92.088 268.537,91.605 268.235,91.103 267.984 C 90.074 267.471,87.300 264.830,87.300 264.364 C 87.300 264.197,87.114 263.951,86.887 263.817 C 86.660 263.684,86.298 263.027,86.083 262.357 C 85.867 261.688,85.568 261.060,85.418 260.962 C 84.599 260.429,84.612 251.873,85.432 250.833 C 85.580 250.647,85.874 249.954,86.087 249.295 C 86.466 248.121,86.653 247.808,87.628 246.723 C 87.892 246.429,88.196 245.958,88.304 245.676 C 88.413 245.393,88.847 245.031,89.270 244.870 C 89.692 244.709,90.038 244.446,90.038 244.286 C 90.038 244.125,90.517 243.821,91.103 243.609 C 91.688 243.397,92.167 243.121,92.167 242.995 C 92.167 242.698,94.207 242.133,95.285 242.131 C 95.745 242.130,96.122 241.992,96.122 241.825 C 96.122 241.654,96.984 241.521,98.099 241.521 C 99.186 241.521,100.076 241.633,100.076 241.769 " stroke="none" fill="#541433" fill-rule="evenodd"></path><path id="path4" d="M260.228 29.202 L 256.578 29.383 260.134 29.445 C 262.246 29.481,263.767 29.382,263.878 29.202 C 263.982 29.034,264.024 28.925,263.972 28.959 C 263.921 28.992,262.236 29.102,260.228 29.202 M247.938 29.846 C 246.699 29.989,245.607 30.186,245.511 30.282 C 245.339 30.453,247.488 30.310,252.319 29.829 L 254.753 29.587 252.471 29.586 C 251.217 29.585,249.176 29.702,247.938 29.846 M239.140 31.090 C 238.248 31.252,237.585 31.450,237.665 31.531 C 237.828 31.694,242.738 31.025,242.738 30.840 C 242.738 30.646,240.864 30.776,239.140 31.090 M233.612 32.328 C 232.859 32.507,232.449 32.696,232.700 32.750 C 232.951 32.804,233.840 32.655,234.677 32.421 C 236.448 31.923,235.625 31.852,233.612 32.328 M228.664 33.677 C 227.867 33.943,227.271 34.216,227.339 34.284 C 227.487 34.432,230.875 33.476,230.875 33.286 C 230.875 33.054,230.146 33.183,228.664 33.677 M225.152 34.885 C 224.431 35.140,223.894 35.402,223.960 35.468 C 224.099 35.607,226.920 34.680,226.920 34.496 C 226.920 34.306,226.574 34.382,225.152 34.885 M137.966 35.245 C 137.475 35.351,138.901 35.438,141.134 35.438 C 143.589 35.439,144.723 35.355,144.004 35.227 C 142.562 34.971,139.193 34.981,137.966 35.245 M135.055 35.874 C 133.199 36.438,130.652 38.139,130.072 39.201 C 129.924 39.473,130.266 39.278,130.833 38.767 C 132.481 37.283,132.827 37.071,134.831 36.327 C 136.604 35.668,136.758 35.355,135.055 35.874 M147.645 36.203 C 148.797 36.546,149.803 36.762,149.881 36.684 C 150.043 36.522,148.162 35.981,146.599 35.741 C 146.023 35.652,146.494 35.860,147.645 36.203 M220.989 36.545 C 219.817 37.061,218.722 37.613,218.555 37.772 C 218.175 38.134,219.135 37.767,221.749 36.553 C 224.349 35.345,223.728 35.339,220.989 36.545 M150.875 37.213 C 151.293 37.450,151.977 37.733,152.395 37.844 L 153.156 38.045 152.395 37.616 C 151.977 37.379,151.293 37.096,150.875 36.985 L 150.114 36.784 150.875 37.213 M153.916 38.425 C 153.916 38.507,154.513 38.923,155.242 39.350 C 158.564 41.297,161.382 44.246,162.548 46.996 C 162.969 47.990,163.031 48.046,162.883 47.300 C 162.439 45.057,158.853 41.127,155.464 39.170 C 154.613 38.679,153.916 38.344,153.916 38.425 M214.415 39.932 C 212.974 40.806,211.332 41.904,210.765 42.372 C 209.491 43.424,210.020 43.151,212.776 41.333 C 213.947 40.560,215.487 39.633,216.198 39.273 C 217.405 38.662,217.797 38.317,217.262 38.335 C 217.137 38.339,215.855 39.058,214.415 39.932 M129.110 40.903 C 128.465 42.446,128.775 46.193,129.589 46.697 C 129.719 46.777,129.634 46.206,129.400 45.426 C 128.859 43.629,128.862 42.672,129.416 41.103 C 129.953 39.580,129.725 39.431,129.110 40.903 M206.735 45.498 C 205.289 46.765,204.106 47.923,204.106 48.070 C 204.106 48.218,204.825 47.678,205.703 46.870 C 206.582 46.063,207.848 44.909,208.517 44.306 C 209.186 43.704,209.651 43.207,209.549 43.202 C 209.447 43.198,208.181 44.231,206.735 45.498 M129.904 47.272 C 129.844 48.196,134.117 52.483,135.970 53.358 C 136.221 53.476,136.092 53.325,135.685 53.022 C 134.592 52.210,130.704 48.309,130.284 47.605 C 130.085 47.270,129.914 47.120,129.904 47.272 M163.129 49.734 C 163.131 50.570,163.190 50.876,163.260 50.414 C 163.330 49.952,163.328 49.267,163.256 48.893 C 163.184 48.519,163.127 48.897,163.129 49.734 M200.760 51.495 C 199.171 53.165,196.502 55.534,194.829 56.761 C 191.209 59.415,190.416 60.036,191.027 59.739 C 193.375 58.594,199.281 53.782,201.823 50.941 C 204.813 47.601,204.128 47.958,200.760 51.495 M162.433 52.624 C 162.221 53.137,161.415 54.119,160.643 54.805 C 159.871 55.492,159.518 55.909,159.858 55.732 C 161.157 55.057,163.379 52.251,162.953 51.825 C 162.880 51.752,162.646 52.111,162.433 52.624 M136.578 53.673 C 136.578 53.756,136.989 54.037,137.490 54.297 C 137.992 54.556,138.403 54.700,138.403 54.616 C 138.403 54.533,137.992 54.252,137.490 53.992 C 136.989 53.733,136.578 53.589,136.578 53.673 M138.707 54.901 C 138.707 55.124,140.909 55.999,141.068 55.839 C 141.144 55.763,140.696 55.488,140.072 55.227 C 138.835 54.710,138.707 54.680,138.707 54.901 M141.445 56.110 C 141.445 56.260,143.146 56.742,144.639 57.015 C 145.141 57.107,144.730 56.911,143.726 56.580 C 141.827 55.953,141.445 55.875,141.445 56.110 M157.624 56.482 C 156.902 56.737,156.362 56.996,156.424 57.058 C 156.614 57.248,158.750 56.573,158.942 56.263 C 159.042 56.101,159.081 55.980,159.029 55.994 C 158.978 56.007,158.345 56.226,157.624 56.482 M146.638 57.449 C 147.902 57.875,151.826 58.093,153.308 57.820 C 154.428 57.613,154.062 57.560,151.293 57.529 C 149.432 57.508,147.447 57.422,146.882 57.338 C 146.002 57.207,145.967 57.223,146.638 57.449 M188.520 60.944 C 186.649 62.017,185.961 62.537,186.931 62.143 C 188.180 61.637,190.916 59.864,190.342 59.933 C 190.300 59.938,189.480 60.393,188.520 60.944 M183.726 63.574 C 182.471 64.227,181.551 64.768,181.681 64.776 C 182.004 64.796,186.160 62.690,186.160 62.506 C 186.160 62.300,186.260 62.256,183.726 63.574 M179.924 65.383 C 179.255 65.699,178.814 65.969,178.945 65.983 C 179.302 66.020,181.293 65.151,181.293 64.958 C 181.293 64.733,181.307 64.728,179.924 65.383 M176.274 66.925 C 175.595 67.259,175.393 67.440,175.817 67.336 C 176.706 67.117,178.240 66.338,177.795 66.332 C 177.627 66.330,176.943 66.597,176.274 66.925 M173.232 68.142 C 172.563 68.471,172.357 68.654,172.776 68.550 C 173.928 68.262,174.905 67.867,174.905 67.688 C 174.905 67.412,174.487 67.526,173.232 68.142 M169.930 69.241 C 169.118 69.491,168.527 69.769,168.617 69.859 C 168.789 70.031,171.863 69.096,171.863 68.873 C 171.863 68.683,171.557 68.741,169.930 69.241 M166.280 70.458 C 165.467 70.708,164.877 70.986,164.967 71.076 C 165.139 71.248,168.213 70.313,168.213 70.090 C 168.213 69.900,167.907 69.958,166.280 70.458 M161.825 71.854 C 161.240 72.028,160.904 72.223,161.080 72.288 C 161.256 72.353,161.940 72.208,162.601 71.966 C 163.978 71.461,163.418 71.381,161.825 71.854 M157.414 73.167 C 156.215 73.582,156.213 73.586,157.262 73.409 C 158.503 73.199,159.772 72.736,159.087 72.742 C 158.837 72.745,158.084 72.936,157.414 73.167 M152.143 74.426 C 151.084 74.677,150.280 74.944,150.356 75.020 C 150.514 75.178,154.829 74.237,154.829 74.044 C 154.829 73.846,154.232 73.931,152.143 74.426 M147.376 75.605 L 145.856 76.019 147.341 75.856 C 148.990 75.674,150.631 75.163,149.506 75.182 C 149.171 75.187,148.213 75.378,147.376 75.605 M141.168 76.821 C 140.096 77.054,139.070 77.313,138.887 77.397 C 138.295 77.669,141.461 77.196,142.918 76.794 C 144.812 76.273,143.613 76.291,141.168 76.821 M134.753 78.175 C 134.172 78.550,134.797 78.550,135.970 78.175 L 136.730 77.931 135.970 77.906 C 135.551 77.892,135.004 78.013,134.753 78.175 " stroke="none" fill="#d45c6c" fill-rule="evenodd"></path></g></svg>